# Blender 4.2.0
# www.blender.org
mtllib YandexRover.mtl
o Body
v 0.985000 1.950000 -1.398028
v -0.798028 1.950000 -1.585000
v -0.892106 1.950000 -1.559830
v -0.959830 1.950000 -1.492106
v -0.800000 0.850000 -1.400000
v -1.000000 1.050000 -1.400000
v -0.800000 1.050000 -1.600000
v -0.899869 0.876719 -1.400000
v -0.800000 0.876719 -1.499869
v -0.895642 0.902674 -1.495642
v -0.973281 1.050000 -1.499869
v -0.973281 0.950131 -1.400000
v -0.947327 0.954358 -1.495642
v -0.800000 0.950131 -1.573281
v -0.899869 1.050000 -1.573281
v -0.895642 0.954358 -1.547327
v -1.000000 1.050000 0.600000
v -0.800000 0.850000 0.600000
v -0.973205 0.950000 0.600000
v -0.900000 0.876795 0.600000
v -1.000000 2.100000 -1.400000
v -0.800000 2.300000 -1.400000
v -0.800000 2.100000 -1.600000
v -0.973281 2.199869 -1.400000
v -0.973281 2.100000 -1.499869
v -0.947327 2.195643 -1.495642
v -0.800000 2.273281 -1.499869
v -0.899869 2.273281 -1.400000
v -0.895642 2.247327 -1.495642
v -0.899869 2.100000 -1.573281
v -0.800000 2.199869 -1.573281
v -0.895642 2.195643 -1.547327
v -0.800000 2.300000 0.600000
v -1.000000 2.100000 0.600000
v -0.900000 2.273206 0.600000
v -0.973205 2.200000 0.600000
v 0.800000 0.850000 -1.400000
v 0.800000 1.050000 -1.600000
v 1.000000 1.050000 -1.400000
v 0.800000 0.876719 -1.499869
v 0.899869 0.876719 -1.400000
v 0.895642 0.902674 -1.495642
v 0.899869 1.050000 -1.573281
v 0.800000 0.950131 -1.573281
v 0.895642 0.954358 -1.547327
v 0.973281 0.950131 -1.400000
v 0.973281 1.050000 -1.499869
v 0.947327 0.954358 -1.495642
v 0.800000 0.850000 0.600000
v 1.000000 1.050000 0.600000
v 0.900000 0.876795 0.600000
v 0.973205 0.950000 0.600000
v 0.800000 2.100000 -1.600000
v 0.800000 2.300000 -1.400000
v 1.000000 2.100000 -1.400000
v 0.800000 2.199869 -1.573281
v 0.899869 2.100000 -1.573281
v 0.895642 2.195643 -1.547327
v 0.899869 2.273281 -1.400000
v 0.800000 2.273281 -1.499869
v 0.895642 2.247327 -1.495642
v 0.973281 2.100000 -1.499869
v 0.973281 2.199869 -1.400000
v 0.947327 2.195643 -1.495642
v 1.000000 2.100000 0.600000
v 0.800000 2.300000 0.600000
v 0.973205 2.200000 0.600000
v 0.900000 2.273206 0.600000
v -1.000000 1.950000 0.600000
v 1.000000 1.950000 0.600000
v -0.798028 2.015000 -1.585000
v -0.892106 2.015000 -1.559830
v -0.959830 2.015000 -1.492106
v 0.985000 2.015000 -1.398028
v -1.000000 2.015000 0.600000
v 1.000000 2.015000 0.600000
v 0.892106 1.950000 -1.559830
v 0.798028 1.950000 -1.585000
v -0.985000 1.950000 -1.398028
v 0.959830 1.950000 -1.492106
v 0.798028 2.015000 -1.585000
v 0.959830 2.015000 -1.492106
v 0.892106 2.015000 -1.559830
v -0.985000 2.015000 -1.398028
v 0.899869 1.950000 -1.573281
v 0.800000 1.950000 -1.600000
v -1.000000 1.950000 -1.400000
v -0.985000 1.950000 0.600000
v 0.973281 1.950000 -1.499869
v 1.000000 1.950000 -1.400000
v -0.899869 1.950000 -1.573281
v -0.800000 1.950000 -1.600000
v -0.973281 1.950000 -1.499869
v 0.800000 2.015000 -1.600000
v 0.985000 1.950000 0.600000
v -0.800000 2.015000 -1.600000
v 1.000000 2.015000 -1.400000
v 0.973281 2.015000 -1.499869
v 0.899869 2.015000 -1.573281
v -1.000000 2.015000 -1.400000
v -0.985000 2.015000 0.600000
v -0.899869 2.015000 -1.573281
v -0.973281 2.015000 -1.499869
v 0.985000 2.015000 0.600000
v -0.850000 1.252902 -1.500000
v -0.607098 1.010000 -1.500000
v -0.817457 1.131451 -1.500000
v -0.728549 1.042543 -1.500000
v -0.607098 2.160000 -1.500000
v -0.850000 1.917098 -1.500000
v -0.728549 2.127457 -1.500000
v -0.817457 2.038549 -1.500000
v -0.850000 1.253818 -1.600000
v -0.606182 1.010000 -1.600000
v -0.817335 1.131909 -1.600000
v -0.728091 1.042666 -1.600000
v -0.606182 2.160000 -1.600000
v -0.850000 1.916182 -1.600000
v -0.728091 2.127335 -1.600000
v -0.817335 2.038091 -1.600000
v 0.607098 1.010000 -1.500000
v 0.850000 1.252902 -1.500000
v 0.728549 1.042543 -1.500000
v 0.817457 1.131451 -1.500000
v 0.850000 1.917098 -1.500000
v 0.607098 2.160000 -1.500000
v 0.817457 2.038549 -1.500000
v 0.728549 2.127457 -1.500000
v 0.606182 1.010000 -1.600000
v 0.850000 1.253818 -1.600000
v 0.728091 1.042666 -1.600000
v 0.817335 1.131909 -1.600000
v 0.850000 1.916182 -1.600000
v 0.606182 2.160000 -1.600000
v 0.817335 2.038091 -1.600000
v 0.728091 2.127335 -1.600000
v -0.840000 1.266174 -1.620000
v -0.593826 1.020000 -1.620000
v -0.807019 1.143087 -1.620000
v -0.716913 1.052981 -1.620000
v -0.593826 2.150000 -1.620000
v -0.840000 1.903826 -1.620000
v -0.716913 2.117019 -1.620000
v -0.807019 2.026913 -1.620000
v 0.593826 1.020000 -1.620000
v 0.840000 1.266174 -1.620000
v 0.716913 1.052981 -1.620000
v 0.807019 1.143087 -1.620000
v 0.840000 1.903826 -1.620000
v 0.593826 2.150000 -1.620000
v 0.807019 2.026913 -1.620000
v 0.716913 2.117019 -1.620000
v -0.786767 2.005971 -1.630000
v -0.820000 1.881942 -1.630000
v -0.695971 2.096767 -1.630000
v -0.571942 2.130000 -1.630000
v 0.820000 1.881940 -1.630000
v 0.786767 2.005971 -1.630000
v 0.695971 2.096766 -1.630000
v 0.571942 2.130000 -1.630000
v -0.695971 1.073233 -1.630000
v -0.571942 1.040000 -1.630000
v -0.786767 1.164029 -1.630000
v -0.820000 1.288060 -1.630000
v 0.571942 1.040000 -1.630000
v 0.695971 1.073233 -1.630000
v 0.786767 1.164029 -1.630000
v 0.820000 1.288058 -1.630000
v -0.571942 1.288060 -1.630000
v 0.571942 1.288060 -1.630000
v 0.571942 1.881940 -1.630000
v -0.571942 1.881940 -1.630000
v -0.546144 1.750000 -1.650000
v -0.628000 1.831856 -1.650000
v -0.588036 1.761225 -1.650000
v -0.616775 1.789964 -1.650000
v -0.628000 1.858143 -1.650000
v -0.546144 1.940000 -1.650000
v -0.616775 1.900036 -1.650000
v -0.588036 1.928775 -1.650000
v 0.628000 1.831856 -1.650000
v 0.546144 1.750000 -1.650000
v 0.616775 1.789964 -1.650000
v 0.588036 1.761225 -1.650000
v 0.546144 1.940000 -1.650000
v 0.628000 1.858144 -1.650000
v 0.588036 1.928775 -1.650000
v 0.616775 1.900036 -1.650000
v -0.634707 1.910388 -1.630000
v -0.648000 1.860777 -1.630000
v -0.598388 1.946707 -1.630000
v -0.548777 1.960000 -1.630000
v 0.648000 1.860777 -1.630000
v 0.634707 1.910388 -1.630000
v 0.598388 1.946706 -1.630000
v 0.548777 1.960000 -1.630000
v -0.598388 1.743293 -1.630000
v -0.548777 1.730000 -1.630000
v -0.634707 1.779611 -1.630000
v -0.648000 1.829223 -1.630000
v 0.548777 1.730000 -1.630000
v 0.598388 1.743293 -1.630000
v 0.634707 1.779611 -1.630000
v 0.648000 1.829223 -1.630000
v -0.546144 1.845000 -1.650000
v 0.546144 1.845000 -1.650000
v -0.641595 0.857647 1.250014
v -0.600000 1.060000 1.450000
v -0.845808 1.057723 1.255316
v -0.620054 0.885528 1.348906
v -0.742797 0.884390 1.251692
v -0.717901 0.911456 1.346348
v -0.706759 1.059710 1.424961
v -0.604786 0.959803 1.422313
v -0.707152 0.963748 1.398028
v -0.817755 0.957830 1.253638
v -0.796985 1.058874 1.353500
v -0.770674 0.963160 1.347718
v -0.600000 1.850000 1.450000
v -0.640114 2.106433 1.258127
v -0.845808 1.899225 1.255316
v -0.604318 1.958727 1.424880
v -0.707030 1.855258 1.423477
v -0.706957 1.959556 1.399096
v -0.741785 2.077433 1.257237
v -0.619042 2.052853 1.354451
v -0.717323 2.025824 1.349513
v -0.797256 1.873327 1.352016
v -0.817287 2.001375 1.256206
v -0.770479 1.972277 1.348786
v 0.641595 0.857647 1.250014
v 0.845808 1.057723 1.255316
v 0.600000 1.060000 1.450000
v 0.742797 0.884390 1.251692
v 0.620054 0.885528 1.348906
v 0.717901 0.911456 1.346348
v 0.796985 1.058874 1.353500
v 0.817755 0.957830 1.253638
v 0.770674 0.963160 1.347718
v 0.604786 0.959803 1.422313
v 0.706759 1.059710 1.424961
v 0.707152 0.963748 1.398028
v 0.640114 2.106433 1.258127
v 0.600000 1.850000 1.450000
v 0.845808 1.899225 1.255316
v 0.619042 2.052853 1.354451
v 0.741785 2.077433 1.257237
v 0.717323 2.025824 1.349513
v 0.707030 1.855258 1.423477
v 0.604318 1.958727 1.424880
v 0.706957 1.959556 1.399096
v 0.817287 2.001375 1.256206
v 0.797256 1.873327 1.352016
v 0.770479 1.972277 1.348786
v -0.850000 0.870000 0.600000
v 0.850000 0.870000 0.600000
v -0.608554 0.630000 0.340000
v -0.704365 0.687690 0.541570
v -0.756661 0.616652 -1.005432
v -0.683726 0.670381 -1.176305
v -0.655516 0.601852 -1.029887
v -0.755574 0.870000 -1.320000
v -0.850000 0.870000 -1.192710
v 0.704365 0.687691 0.541570
v 0.608554 0.630000 0.340000
v 0.655516 0.601852 -1.029887
v 0.683726 0.670381 -1.176305
v 0.756661 0.616652 -1.005432
v 0.850000 0.870000 -1.192710
v 0.755574 0.870000 -1.320000
v -0.633931 0.744500 0.925163
v -0.480521 0.689725 0.860456
v -0.493862 0.747238 1.026761
v -0.721520 0.878565 1.122487
v -0.599576 0.880000 1.210000
v 0.599576 0.880000 1.210000
v 0.721520 0.878565 1.122487
v 0.633931 0.744500 0.925163
v 0.493862 0.747238 1.026761
v 0.480521 0.689725 0.860456
v -0.077576 2.922568 0.891619
v 0.000000 2.158514 0.655866
v -0.134366 2.872468 0.939733
v 0.110000 2.152891 0.684799
v -0.155153 2.857665 1.015884
v 0.190526 2.137525 0.763845
v -0.134366 2.842863 1.092036
v 0.220000 2.116537 0.871824
v -0.077576 2.832027 1.147782
v 0.190526 2.095548 0.979803
v 0.000000 2.828061 1.168187
v 0.018322 2.420961 1.141333
v 0.077576 2.832027 1.147782
v 0.000000 2.307568 1.133785
v 0.134366 2.842863 1.092036
v -0.018322 2.420961 1.141333
v 0.155153 2.857665 1.015884
v -0.190526 2.095548 0.979803
v 0.134366 2.872468 0.939733
v -0.220000 2.116537 0.871824
v 0.077576 2.883304 0.883987
v -0.190526 2.137525 0.763845
v -0.110000 2.152891 0.684799
v 0.000000 2.887269 0.863582
v 0.074988 2.710664 0.854996
v 0.000000 2.714497 0.835272
v 0.129883 2.700189 0.908882
v 0.149976 2.685880 0.982493
v 0.129883 2.671572 1.056103
v 0.074988 2.661097 1.109990
v 0.000000 2.657264 1.129714
v -0.074988 2.661097 1.109990
v -0.129883 2.671572 1.056103
v -0.149976 2.685880 0.982493
v -0.129883 2.700189 0.908882
v -0.074988 2.710664 0.854996
v 0.000000 2.683621 0.758292
v 0.000000 2.697568 0.776652
v 0.102319 2.692337 0.803565
v 0.110000 2.677998 0.787225
v 0.177222 2.678045 0.877092
v 0.190526 2.662632 0.866271
v 0.204638 2.658521 0.977530
v 0.220000 2.641644 0.974250
v 0.177222 2.638998 1.077969
v 0.190526 2.620654 1.082229
v 0.102319 2.624706 1.151496
v 0.018322 2.468864 1.150645
v 0.000000 2.619475 1.178409
v 0.000000 2.550520 1.181010
v -0.102319 2.624706 1.151496
v -0.018322 2.468864 1.150645
v -0.177222 2.638998 1.077969
v -0.190526 2.620654 1.082229
v -0.204638 2.658521 0.977530
v -0.220000 2.641644 0.974250
v -0.177222 2.678045 0.877092
v -0.190526 2.662632 0.866271
v -0.102319 2.692337 0.803565
v -0.110000 2.677998 0.787225
v -0.077576 2.883304 0.883987
v -0.134366 2.911732 0.947366
v -0.155153 2.896930 1.023517
v -0.129883 2.887530 1.098081
v -0.077576 2.871292 1.155415
v 0.000000 2.867325 1.175819
v 0.077576 2.871292 1.155415
v 0.134366 2.882128 1.099668
v 0.149976 2.901838 1.024471
v 0.134366 2.911732 0.947366
v 0.077576 2.922568 0.891619
v 0.000000 2.926535 0.871215
v 0.000000 2.901838 1.024471
v 0.074988 2.926621 0.896974
v 0.000000 2.930455 0.877250
v 0.129883 2.916147 0.950860
v 0.074988 2.877055 1.151968
v 0.129883 2.887530 1.098081
v -0.074988 2.877055 1.151968
v 0.000000 2.873222 1.171692
v -0.129883 2.916147 0.950860
v -0.149976 2.901838 1.024471
v -0.074988 2.926621 0.896974
v -0.074988 2.877540 0.887433
v -0.129883 2.867065 0.941320
v -0.149976 2.852757 1.014930
v -0.129883 2.838449 1.088541
v -0.074988 2.827974 1.142428
v 0.000000 2.824140 1.162151
v 0.074988 2.827974 1.142428
v 0.129883 2.838449 1.088541
v 0.149976 2.852757 1.014930
v 0.129883 2.867065 0.941320
v 0.074988 2.877540 0.887433
v 0.000000 2.881374 0.867710
v 0.155153 2.896930 1.023517
v -0.134366 2.882128 1.099668
v 0.110000 2.080183 1.058849
v 0.000000 2.074559 1.087782
v -0.110000 2.080183 1.058849
v 0.000000 2.599665 1.190208
v 0.110000 2.605289 1.161275
v -0.110000 2.605289 1.161275
v 0.081022 2.311710 1.112474
v 0.000000 2.316396 1.140775
v -0.081022 2.311710 1.112474
v 0.000000 2.539716 1.184184
v 0.081022 2.554663 1.159699
v -0.081022 2.554663 1.159699
v 0.072657 2.320111 1.121664
v 0.000000 2.399913 1.131697
v -0.072657 2.320111 1.121664
v 0.000000 2.491990 1.149595
v 0.072657 2.543431 1.165073
v -0.072657 2.543431 1.165073
v 0.037468 2.401829 1.121842
v 0.000000 2.409220 1.149326
v -0.037468 2.401829 1.121842
v 0.000000 2.476756 1.162453
v 0.037468 2.493905 1.139740
v -0.037468 2.493905 1.139740
v 0.029276 2.410717 1.141626
v 0.000000 2.420024 1.146153
v -0.029276 2.410717 1.141626
v 0.000000 2.467927 1.155464
v 0.029276 2.478253 1.154753
v -0.029276 2.478253 1.154753
v -0.582312 2.341988 0.639719
v 0.582313 2.341988 0.639719
v 0.582313 2.173232 0.624955
v -0.582312 2.173232 0.624955
v -0.582313 2.354072 0.501588
v -0.552313 2.356752 0.470964
v -0.573526 2.355967 0.479933
v 0.552312 2.356752 0.470964
v 0.582312 2.354072 0.501588
v 0.573526 2.355967 0.479933
v 0.582313 2.161145 0.763114
v 0.552313 2.158468 0.793710
v 0.573526 2.159252 0.784749
v -0.552312 2.158468 0.793710
v -0.582312 2.161145 0.763114
v -0.573526 2.159252 0.784749
v 0.552312 2.187996 0.456199
v 0.582312 2.185319 0.486795
v 0.573526 2.187212 0.465161
v -0.582313 2.185319 0.486795
v -0.552313 2.187996 0.456199
v -0.573526 2.187212 0.465161
v -0.552312 2.327223 0.808474
v -0.582312 2.329902 0.777850
v -0.573526 2.328008 0.799505
v 0.582313 2.329902 0.777850
v 0.552313 2.327223 0.808474
v 0.573526 2.328008 0.799505
v -0.552312 2.413579 0.793247
v -0.582312 2.400566 0.765341
v -0.573526 2.409767 0.785074
v 0.582313 2.400566 0.765341
v 0.552313 2.413579 0.793247
v 0.573526 2.409767 0.785074
v -0.552312 2.480752 0.736883
v -0.582312 2.455506 0.719205
v -0.573526 2.473357 0.731705
v 0.582313 2.455506 0.719205
v 0.552313 2.480752 0.736883
v 0.573526 2.473357 0.731705
v -0.552313 2.510743 0.654483
v -0.582313 2.480031 0.651796
v -0.573526 2.501748 0.653696
v 0.582312 2.480031 0.651796
v 0.552312 2.510743 0.654483
v 0.573526 2.501748 0.653696
v -0.552313 2.495516 0.568127
v -0.582313 2.467584 0.581152
v -0.573526 2.487334 0.571942
v 0.582312 2.467584 0.581152
v 0.552312 2.495516 0.568127
v 0.573526 2.487334 0.571942
v -0.552313 2.439151 0.500955
v -0.582313 2.421490 0.526177
v -0.573526 2.433979 0.508342
v 0.582312 2.421490 0.526177
v 0.552312 2.439151 0.500955
v 0.573526 2.433979 0.508342
v -0.982309 0.480052 0.900000
v -0.852899 0.963015 0.700000
v -0.982309 0.480052 -0.900000
v -0.852899 0.963015 -0.700000
v -0.895375 0.456758 0.900000
v -0.765966 0.939721 0.700000
v -0.895375 0.456758 -0.900000
v -0.765966 0.939721 -0.700000
v -0.959523 0.681001 1.100000
v -0.959523 0.681002 -1.100000
v -0.814634 0.642179 -1.100000
v -0.814634 0.642179 1.100000
v -0.982309 0.480052 0.000000
v -0.852899 0.963015 0.000000
v -0.895375 0.456758 -0.000000
v -0.765966 0.939721 -0.000000
v -0.814634 0.642179 -0.000000
v -0.959523 0.681001 0.000000
v -0.956427 0.576644 0.500000
v -0.765966 0.939721 0.300000
v -0.814634 0.642179 0.500000
v -0.852899 0.963015 0.300000
v -0.869494 0.553351 0.500000
v -0.959523 0.681001 0.500000
v -0.852899 0.963015 -0.300000
v -0.869494 0.553351 -0.500000
v -0.959523 0.681001 -0.500000
v -0.956427 0.576644 -0.500000
v -0.765966 0.939721 -0.300000
v -0.814634 0.642179 -0.500000
v 0.982309 0.480052 0.900000
v 0.852899 0.963015 0.700000
v 0.982309 0.480052 -0.900000
v 0.852899 0.963015 -0.700000
v 0.895375 0.456758 0.900000
v 0.765966 0.939721 0.700000
v 0.895375 0.456758 -0.900000
v 0.765966 0.939721 -0.700000
v 0.959523 0.681001 1.100000
v 0.959523 0.681002 -1.100000
v 0.814634 0.642179 -1.100000
v 0.814634 0.642179 1.100000
v 0.982309 0.480052 0.000000
v 0.852899 0.963015 0.000000
v 0.895375 0.456758 -0.000000
v 0.765966 0.939721 -0.000000
v 0.814634 0.642179 -0.000000
v 0.959523 0.681001 0.000000
v 0.956427 0.576644 0.500000
v 0.765966 0.939721 0.300000
v 0.814634 0.642179 0.500000
v 0.852899 0.963015 0.300000
v 0.869494 0.553351 0.500000
v 0.959523 0.681001 0.500000
v 0.852899 0.963015 -0.300000
v 0.869494 0.553351 -0.500000
v 0.959523 0.681001 -0.500000
v 0.956427 0.576644 -0.500000
v 0.765966 0.939721 -0.300000
v 0.814634 0.642179 -0.500000
v -0.440000 1.750000 1.460000
v -0.440000 1.800000 1.450000
v -0.465000 1.793301 1.450000
v -0.483301 1.775000 1.450000
v -0.490000 1.750000 1.450000
v -0.390000 1.200000 1.450000
v -0.396699 1.175000 1.450000
v -0.415000 1.156699 1.450000
v -0.440000 1.150000 1.450000
v -0.440000 1.200000 1.460000
v -0.390000 1.750000 1.450000
v -0.396699 1.775000 1.450000
v -0.415000 1.793301 1.450000
v -0.490000 1.200000 1.450000
v -0.483301 1.175000 1.450000
v -0.465000 1.156699 1.450000
v -0.459824 1.784336 1.460000
v -0.440000 1.789647 1.460000
v -0.474335 1.769824 1.460000
v -0.479647 1.750000 1.460000
v -0.459824 1.165665 1.460000
v -0.474335 1.180177 1.460000
v -0.479647 1.200000 1.460000
v -0.400353 1.200000 1.460000
v -0.405665 1.180177 1.460000
v -0.420176 1.165665 1.460000
v -0.440000 1.160353 1.460000
v -0.405665 1.769824 1.460000
v -0.400353 1.750000 1.460000
v -0.420176 1.784336 1.460000
v 0.440000 1.750000 1.460000
v 0.440000 1.800000 1.450000
v 0.465000 1.793301 1.450000
v 0.483301 1.775000 1.450000
v 0.490000 1.750000 1.450000
v 0.390000 1.200000 1.450000
v 0.396699 1.175000 1.450000
v 0.415000 1.156699 1.450000
v 0.440000 1.150000 1.450000
v 0.440000 1.200000 1.460000
v 0.390000 1.750000 1.450000
v 0.396699 1.775000 1.450000
v 0.415000 1.793301 1.450000
v 0.490000 1.200000 1.450000
v 0.483301 1.175000 1.450000
v 0.465000 1.156699 1.450000
v 0.459824 1.784336 1.460000
v 0.440000 1.789647 1.460000
v 0.474335 1.769824 1.460000
v 0.479647 1.750000 1.460000
v 0.459824 1.165665 1.460000
v 0.474335 1.180177 1.460000
v 0.479647 1.200000 1.460000
v 0.400353 1.200000 1.460000
v 0.405665 1.180177 1.460000
v 0.420176 1.165665 1.460000
v 0.440000 1.160353 1.460000
v 0.405665 1.769824 1.460000
v 0.400353 1.750000 1.460000
v 0.420176 1.784336 1.460000
v -1.066000 1.771500 0.290000
v -0.991000 1.771500 0.190000
v -0.991000 1.821500 0.203397
v -0.991000 1.858103 0.240000
v -0.991000 1.871500 0.290000
v -0.991000 1.858103 0.340000
v -0.991000 1.821500 0.376603
v -0.991000 1.771500 0.390000
v -0.991000 1.721500 0.376603
v -0.991000 1.684898 0.340000
v -0.991000 1.671500 0.290000
v -0.991000 1.684898 0.240000
v -0.991000 1.721500 0.203397
v -1.056000 1.771500 0.190000
v -1.066000 1.771500 0.200353
v -1.066000 1.816324 0.212363
v -1.056000 1.821500 0.203397
v -1.066000 1.849137 0.245176
v -1.056000 1.858103 0.240000
v -1.066000 1.861147 0.290000
v -1.056000 1.871500 0.290000
v -1.066000 1.849137 0.334824
v -1.056000 1.858103 0.340000
v -1.066000 1.816324 0.367637
v -1.056000 1.821500 0.376603
v -1.066000 1.771500 0.379647
v -1.056000 1.771500 0.390000
v -1.066000 1.726676 0.367637
v -1.056000 1.721500 0.376603
v -1.066000 1.693863 0.334824
v -1.056000 1.684898 0.340000
v -1.066000 1.681853 0.290000
v -1.056000 1.671500 0.290000
v -1.066000 1.693863 0.245176
v -1.056000 1.684898 0.240000
v -1.066000 1.726677 0.212363
v -1.056000 1.721500 0.203397
v -1.050000 4.400000 0.310000
v -1.050000 3.950000 0.310000
v -1.030000 1.860000 0.275000
v -1.030000 3.960000 0.275000
v -1.015734 1.860000 0.285365
v -1.015734 3.960000 0.285365
v -1.021183 1.860000 0.302135
v -1.021183 3.960000 0.302135
v -1.038817 1.860000 0.302135
v -1.038817 3.960000 0.302135
v -1.044266 1.860000 0.285365
v -1.044266 3.960000 0.285365
v -1.050000 3.950000 -0.290000
v -1.050000 4.400000 -0.290000
v -1.010000 3.950000 0.310000
v -1.010000 4.400000 0.310000
v -1.010000 3.950000 -0.290000
v -1.010000 4.400000 -0.290000
vn -1.0000 -0.0000 -0.0000
vn 1.0000 -0.0000 -0.0000
vn -0.0000 -1.0000 -0.0000
vn -0.0000 1.0000 -0.0000
vn -0.2566 -0.9318 -0.2566
vn -0.6901 -0.6901 -0.2178
vn -0.9318 -0.2566 -0.2566
vn -0.6901 -0.2178 -0.6901
vn -0.2566 -0.2566 -0.9318
vn -0.2178 -0.6901 -0.6901
vn -0.5773 -0.5773 -0.5774
vn -0.9318 0.2566 -0.2566
vn -0.6901 0.6901 -0.2178
vn -0.2566 0.9318 -0.2566
vn -0.2178 0.6901 -0.6901
vn -0.2566 0.2566 -0.9318
vn -0.6901 0.2178 -0.6901
vn -0.5773 0.5774 -0.5774
vn 0.2566 -0.9318 -0.2566
vn 0.2178 -0.6901 -0.6901
vn 0.2566 -0.2566 -0.9318
vn 0.6901 -0.2178 -0.6901
vn 0.9318 -0.2566 -0.2566
vn 0.6901 -0.6901 -0.2178
vn 0.5773 -0.5773 -0.5774
vn 0.2566 0.2566 -0.9318
vn 0.2178 0.6901 -0.6901
vn 0.2566 0.9318 -0.2566
vn 0.6901 0.6901 -0.2178
vn 0.9318 0.2566 -0.2566
vn 0.6901 0.2178 -0.6901
vn 0.5773 0.5774 -0.5774
vn -0.2586 -0.9660 -0.0000
vn -0.7071 -0.7071 -0.0000
vn -0.9660 -0.2586 -0.0000
vn -0.2586 0.9660 -0.0000
vn -0.7071 0.7071 -0.0000
vn -0.9660 0.2586 -0.0000
vn -0.0000 0.9660 -0.2585
vn -0.0000 0.7071 -0.7071
vn -0.0000 0.2585 -0.9660
vn -0.9660 -0.0000 -0.2585
vn -0.7071 -0.0000 -0.7071
vn -0.2585 -0.0000 -0.9660
vn 0.2586 -0.9660 -0.0000
vn 0.7071 -0.7071 -0.0000
vn 0.9660 -0.2586 -0.0000
vn 0.2586 0.9660 -0.0000
vn 0.7071 0.7071 -0.0000
vn 0.9660 0.2586 -0.0000
vn 0.9660 -0.0000 -0.2585
vn 0.7071 -0.0000 -0.7071
vn 0.2585 -0.0000 -0.9660
vn -0.0000 -0.9660 -0.2585
vn -0.0000 -0.7071 -0.7071
vn -0.0000 -0.2585 -0.9660
vn -0.0000 -0.0000 -1.0000
vn 0.8944 -0.0000 -0.4472
vn -0.8944 -0.0000 -0.4472
vn -0.0000 -0.8944 -0.4472
vn -0.4472 -0.0000 -0.8944
vn -0.0000 0.8944 -0.4472
vn 0.4472 -0.0000 -0.8944
vn -0.0000 -0.4472 -0.8944
vn -0.0000 0.4472 -0.8944
vn -0.2588 -0.9659 -0.0024
vn -0.7071 -0.7071 -0.0041
vn -0.9659 -0.2588 -0.0024
vn -0.2588 0.9659 -0.0024
vn -0.7071 0.7071 -0.0041
vn -0.9659 0.2588 -0.0024
vn 0.2588 -0.9659 -0.0024
vn 0.7071 -0.7071 -0.0041
vn 0.9659 -0.2588 -0.0024
vn 0.2588 0.9659 -0.0024
vn 0.7071 0.7071 -0.0041
vn 0.9659 0.2588 -0.0024
vn -0.8125 0.2177 -0.5408
vn -0.5630 0.5630 -0.6050
vn -0.2177 0.8125 -0.5408
vn 0.8125 0.2177 -0.5408
vn 0.5630 0.5630 -0.6050
vn 0.2177 0.8125 -0.5408
vn -0.2177 -0.8125 -0.5408
vn -0.5630 -0.5630 -0.6050
vn -0.8125 -0.2177 -0.5408
vn 0.2177 -0.8125 -0.5408
vn 0.5630 -0.5630 -0.6050
vn 0.8125 -0.2177 -0.5408
vn -0.3590 0.0962 -0.9284
vn -0.2296 0.2296 -0.9458
vn -0.0962 0.3590 -0.9284
vn 0.3589 0.0962 -0.9284
vn 0.2296 0.2296 -0.9458
vn 0.0962 0.3590 -0.9284
vn -0.0962 -0.3590 -0.9284
vn -0.2296 -0.2296 -0.9458
vn -0.3589 -0.0962 -0.9284
vn 0.0962 -0.3590 -0.9284
vn 0.2296 -0.2296 -0.9458
vn 0.3590 -0.0962 -0.9284
vn -0.0000 -0.0000 1.0000
vn -0.0000 0.9594 0.2822
vn -0.9734 -0.0000 0.2290
vn -0.6830 0.1830 -0.7071
vn -0.5000 0.5000 -0.7071
vn -0.1830 0.6830 -0.7071
vn 0.6830 0.1830 -0.7071
vn 0.5000 0.5000 -0.7071
vn 0.1830 0.6830 -0.7071
vn -0.1830 -0.6830 -0.7071
vn -0.5000 -0.5000 -0.7071
vn -0.6830 -0.1830 -0.7071
vn 0.1830 -0.6830 -0.7071
vn 0.5000 -0.5000 -0.7071
vn 0.6830 -0.1830 -0.7071
vn -0.2438 -0.9160 0.3185
vn -0.1959 -0.6686 0.7173
vn -0.2262 -0.2557 0.9399
vn -0.6054 -0.2128 0.7669
vn -0.8615 -0.2562 0.4384
vn -0.6475 -0.6705 0.3620
vn -0.5173 -0.5454 0.6595
vn -0.2304 0.2159 0.9488
vn -0.1963 0.5676 0.7996
vn -0.2449 0.8204 0.5167
vn -0.6170 0.6057 0.5024
vn -0.8385 0.2363 0.4911
vn -0.5872 0.1846 0.7881
vn -0.4868 0.4732 0.7342
vn 0.2438 -0.9160 0.3185
vn 0.6475 -0.6705 0.3620
vn 0.8615 -0.2562 0.4384
vn 0.6054 -0.2128 0.7669
vn 0.2262 -0.2557 0.9399
vn 0.1959 -0.6686 0.7173
vn 0.5173 -0.5454 0.6595
vn 0.2449 0.8204 0.5167
vn 0.1963 0.5676 0.7996
vn 0.2304 0.2159 0.9488
vn 0.5872 0.1846 0.7881
vn 0.8385 0.2363 0.4911
vn 0.6170 0.6057 0.5024
vn 0.4868 0.4732 0.7342
vn -0.2559 -0.9639 0.0733
vn -0.6916 -0.7010 0.1739
vn -0.9391 -0.2596 0.2252
vn -0.2344 0.0009 0.9721
vn -0.6208 0.0012 0.7840
vn -0.8945 0.0003 0.4470
vn -0.2530 0.9093 0.3303
vn -0.6632 0.6582 0.3563
vn -0.9221 0.2510 0.2945
vn 0.2559 -0.9639 0.0733
vn 0.6916 -0.7010 0.1739
vn 0.9391 -0.2596 0.2252
vn 0.2530 0.9093 0.3303
vn 0.6632 0.6582 0.3563
vn 0.9221 0.2510 0.2945
vn 0.2344 0.0009 0.9721
vn 0.6208 0.0012 0.7840
vn 0.8945 0.0003 0.4470
vn -0.0000 -0.9625 0.2713
vn -0.0000 -0.7029 0.7113
vn -0.0000 -0.2663 0.9639
vn -0.0000 0.8739 0.4861
vn -0.0000 0.5991 0.8007
vn -0.0000 0.2251 0.9743
vn -0.0000 -0.9999 0.0118
vn 0.9734 -0.0000 0.2290
vn -0.0000 -0.8098 0.5867
vn 0.7360 -0.6493 0.1916
vn 0.6295 -0.7435 0.2257
vn -0.9383 -0.3457 -0.0000
vn 0.7714 -0.6339 0.0552
vn 0.9383 -0.3457 -0.0000
vn -0.6295 -0.7435 0.2257
vn -0.7360 -0.6493 0.1916
vn -0.0000 -0.9998 0.0205
vn -0.0000 -0.9935 0.1140
vn -0.0000 -0.5842 -0.8116
vn -0.2228 -0.8987 -0.3777
vn 0.2228 -0.8987 -0.3777
vn -0.2033 -0.9303 0.3054
vn 0.2033 -0.9303 0.3054
vn -0.3016 -0.9525 0.0427
vn -0.6569 -0.5861 -0.4743
vn -0.0000 -0.9057 -0.4239
vn 0.6569 -0.5861 -0.4743
vn 0.3016 -0.9525 0.0427
vn -0.3033 -0.8458 0.4389
vn 0.3033 -0.8458 0.4389
vn -0.0000 -0.9451 0.3268
vn 0.2423 -0.9541 0.1762
vn -0.2423 -0.9541 0.1762
vn -0.7714 -0.6339 0.0552
vn -0.7071 0.1349 -0.6941
vn -0.2588 0.1849 -0.9481
vn 0.9659 -0.0494 0.2541
vn 0.3307 0.9308 -0.1559
vn -0.2588 -0.1843 0.9482
vn 0.4507 0.8913 0.0502
vn -0.9659 0.0494 -0.2541
vn 0.4495 0.8459 0.2871
vn 0.9659 0.0494 -0.2541
vn 0.3283 0.8068 0.4912
vn 0.2588 -0.1843 0.9482
vn 0.1200 0.7843 0.6087
vn -0.9659 -0.0494 0.2541
vn -0.1200 0.7843 0.6087
vn 0.7071 0.1349 -0.6941
vn -0.3283 0.8068 0.4912
vn -0.2588 0.1843 -0.9482
vn -0.4495 0.8459 0.2871
vn 0.7071 -0.1349 0.6941
vn -0.4507 0.8913 0.0502
vn -0.7071 -0.1349 0.6941
vn -0.3307 0.9308 -0.1559
vn 0.2588 0.1843 -0.9482
vn -0.1212 0.9537 -0.2754
vn 0.2588 0.1849 -0.9481
vn 0.9659 0.0496 -0.2540
vn 0.9659 -0.0496 0.2540
vn 0.7071 -0.1354 0.6940
vn -0.7071 -0.1354 0.6940
vn -0.9659 -0.0496 0.2540
vn -0.9659 0.0496 -0.2540
vn -0.7071 0.1354 -0.6940
vn 0.7071 0.1354 -0.6940
vn 0.1959 0.7809 -0.5932
vn 0.5353 0.7435 -0.4008
vn 0.7312 0.6787 -0.0677
vn 0.7313 0.6040 0.3170
vn 0.5353 0.5392 0.6501
vn 0.1959 0.5018 0.8425
vn -0.1959 0.5018 0.8425
vn -0.5353 0.5392 0.6501
vn -0.7313 0.6040 0.3170
vn -0.7312 0.6787 -0.0677
vn -0.5353 0.7435 -0.4008
vn -0.1959 0.7809 -0.5932
vn 0.1212 0.9537 -0.2754
vn -0.0000 0.9816 0.1908
vn 0.1830 0.8244 -0.5356
vn 0.5000 0.7895 -0.3559
vn 0.5000 0.5987 0.6257
vn -0.1830 0.5638 0.8054
vn -0.6831 0.7290 -0.0447
vn -0.5000 0.7895 -0.3559
vn -0.5000 -0.5987 -0.6257
vn -0.6830 -0.6592 -0.3146
vn -0.5000 -0.7895 0.3559
vn -0.1830 -0.8245 0.5355
vn 0.5000 -0.7895 0.3559
vn 0.6830 -0.7290 0.0447
vn 0.5000 -0.5987 -0.6257
vn 0.1830 -0.5638 -0.8054
vn 0.6831 0.6592 0.3146
vn -0.5000 0.5987 0.6257
vn -0.1830 -0.5638 -0.8054
vn -0.6830 -0.7290 0.0447
vn 0.1830 -0.8245 0.5355
vn 0.6830 -0.6592 -0.3146
vn -0.1830 0.8244 -0.5356
vn -0.6831 0.6592 0.3146
vn 0.1830 0.5638 0.8054
vn 0.6831 0.7290 -0.0447
vn 0.2588 -0.1871 0.9476
vn -0.2588 -0.1871 0.9476
vn 0.2588 -0.1777 0.9494
vn -0.2588 -0.1777 0.9494
vn 0.2737 -0.1839 0.9441
vn -0.2737 -0.1839 0.9441
vn 0.2315 -0.6039 0.7627
vn -0.2315 -0.6039 0.7627
vn 0.2315 0.2742 0.9334
vn -0.2315 0.2742 0.9334
vn 0.6635 -0.1428 0.7345
vn -0.6635 -0.1428 0.7345
vn 0.2480 0.1047 0.9631
vn -0.2480 0.1047 0.9631
vn 0.2361 -0.5702 0.7868
vn -0.2361 -0.5702 0.7868
vn -0.4013 -0.1748 0.8991
vn 0.4013 -0.1748 0.8991
vn 0.1657 -0.8721 0.4604
vn -0.1657 -0.8721 0.4604
vn 0.1657 0.6361 0.7536
vn -0.1657 0.6361 0.7536
vn 0.9077 -0.0801 0.4118
vn -0.9077 -0.0801 0.4118
vn 0.2315 0.2741 0.9334
vn -0.2315 0.2741 0.9334
vn -0.2005 -0.1869 0.9617
vn 0.2005 -0.1869 0.9617
vn -0.0000 0.3420 -0.9397
vn -0.0000 -0.0872 0.9962
vn -0.0000 0.1736 0.9848
vn -0.0000 0.6428 0.7660
vn -0.0000 0.9397 0.3420
vn -0.0000 0.9848 -0.1737
vn -0.0000 0.7660 -0.6428
vn -0.0000 0.0872 -0.9962
vn -0.9271 -0.0326 0.3735
vn -0.3906 -0.0802 0.9171
vn 0.9271 -0.0326 0.3735
vn 0.3906 -0.0802 0.9171
vn -0.3906 0.0803 -0.9171
vn -0.9271 0.0327 -0.3735
vn 0.3906 0.0803 -0.9171
vn 0.9271 0.0327 -0.3735
vn -0.3796 0.1607 0.9111
vn -0.9226 0.0671 0.3799
vn 0.3796 0.1607 0.9111
vn 0.9226 0.0671 0.3799
vn -0.3800 0.5946 0.7085
vn -0.9228 0.2478 0.2952
vn 0.3800 0.5946 0.7085
vn 0.9228 0.2478 0.2951
vn -0.3802 0.8691 0.3163
vn -0.9229 0.3619 0.1317
vn 0.3802 0.8691 0.3163
vn 0.9229 0.3619 0.1317
vn -0.3802 0.9108 -0.1606
vn -0.9229 0.3793 -0.0669
vn 0.3802 0.9108 -0.1606
vn 0.9229 0.3793 -0.0669
vn -0.3800 0.7086 -0.5945
vn -0.9228 0.2953 -0.2476
vn 0.3800 0.7086 -0.5945
vn 0.9228 0.2953 -0.2476
vn -0.3796 0.3165 -0.8693
vn -0.9226 0.1321 -0.3625
vn 0.3796 0.3165 -0.8693
vn 0.9226 0.1321 -0.3625
vn -0.9354 0.3536 -0.0000
vn 0.2071 0.7727 -0.6000
vn 0.9869 -0.1614 -0.0000
vn 0.2071 0.7727 0.6000
vn -0.2511 -0.9371 -0.2425
vn -0.1830 -0.6830 0.7071
vn 0.9015 -0.4323 -0.0184
vn -0.9969 0.0764 0.0184
vn -0.9977 0.0643 0.0196
vn 0.8962 -0.4431 -0.0196
vn -0.2538 -0.9472 -0.1961
vn -0.9969 0.0764 -0.0184
vn 0.8962 -0.4431 0.0196
vn -0.2538 -0.9472 0.1961
vn -0.2511 -0.9371 0.2425
vn 0.9015 -0.4323 0.0184
vn -0.9977 0.0643 -0.0196
vn 0.9354 0.3536 -0.0000
vn -0.2071 0.7727 -0.6000
vn -0.9869 -0.1614 -0.0000
vn -0.2071 0.7727 0.6000
vn 0.2511 -0.9371 -0.2425
vn 0.1830 -0.6830 0.7071
vn -0.9015 -0.4323 -0.0184
vn 0.9969 0.0764 0.0184
vn 0.9977 0.0643 0.0196
vn -0.8962 -0.4431 -0.0196
vn 0.2538 -0.9472 -0.1961
vn 0.9969 0.0764 -0.0184
vn -0.8962 -0.4431 0.0196
vn 0.2538 -0.9472 0.1961
vn 0.2511 -0.9371 0.2425
vn -0.9015 -0.4323 0.0184
vn 0.9977 0.0643 -0.0196
vn -0.1830 0.6830 0.7071
vn -0.5000 0.5000 0.7071
vn -0.6830 0.1830 0.7071
vn -0.5000 -0.5000 0.7071
vn -0.6830 -0.1830 0.7071
vn 0.6830 -0.1830 0.7071
vn 0.5000 -0.5000 0.7071
vn 0.6830 0.1830 0.7071
vn 0.5000 0.5000 0.7071
vn 0.1830 0.6830 0.7071
vn 0.6947 -0.0000 0.7193
vn -0.6947 -0.0000 0.7193
vn -0.0000 0.2588 -0.9659
vn -0.0000 -0.2588 -0.9659
vn -0.0000 0.9659 -0.2588
vn -0.0000 0.9659 0.2588
vn -0.0000 0.7071 0.7071
vn -0.0000 0.2588 0.9659
vn -0.0000 -0.2588 0.9659
vn -0.0000 -0.7071 0.7071
vn -0.0000 -0.9659 0.2588
vn -0.0000 -0.9659 -0.2588
vn -0.7071 0.1830 -0.6830
vn -0.7071 0.5000 -0.5000
vn -0.7071 0.6830 -0.1830
vn -0.7071 0.6830 0.1830
vn -0.7071 0.5000 0.5000
vn -0.7071 0.1830 0.6830
vn -0.7071 -0.1830 0.6830
vn -0.7071 -0.5000 0.5000
vn -0.7071 -0.6830 0.1830
vn -0.7071 -0.6830 -0.1830
vn -0.7071 -0.5000 -0.5000
vn -0.7071 -0.1830 -0.6830
vn 0.5878 -0.0000 -0.8090
vn 0.9511 -0.0000 0.3090
vn -0.9511 -0.0000 0.3090
vn -0.5878 -0.0000 -0.8090
vt 0.114112 0.769996
vt 0.005597 0.769996
vt 0.005597 0.528850
vt 0.114112 0.528850
vt 0.902373 0.006328
vt 0.901981 0.016502
vt 0.661213 0.016555
vt 0.661216 0.006202
vt 0.151560 0.491402
vt 0.151560 0.298486
vt 0.392705 0.298486
vt 0.392705 0.491402
vt 0.661214 0.247014
vt 0.661213 0.054019
vt 0.902458 0.054018
vt 0.902459 0.247013
vt 0.148951 0.492046
vt 0.151560 0.503867
vt 0.140605 0.506157
vt 0.137330 0.495439
vt 0.151560 0.516385
vt 0.140440 0.514106
vt 0.148814 0.528351
vt 0.137058 0.524812
vt 0.126120 0.518509
vt 0.133770 0.510058
vt 0.117114 0.509881
vt 0.126325 0.501472
vt 0.902005 0.284548
vt 0.902459 0.272007
vt 0.913989 0.273059
vt 0.913886 0.284012
vt 0.906577 0.259458
vt 0.916793 0.265452
vt 0.913460 0.248574
vt 0.923861 0.256169
vt 0.932322 0.266361
vt 0.921776 0.271666
vt 0.937428 0.278419
vt 0.925564 0.281948
vt 0.148814 0.297987
vt 0.137058 0.294448
vt 0.140440 0.283742
vt 0.151560 0.286021
vt 0.126120 0.288145
vt 0.133770 0.279694
vt 0.117114 0.279517
vt 0.126325 0.271108
vt 0.137330 0.265075
vt 0.140605 0.275793
vt 0.148951 0.261682
vt 0.151560 0.273503
vt 0.936675 0.022500
vt 0.931793 0.034098
vt 0.921541 0.029237
vt 0.925243 0.019048
vt 0.923678 0.044211
vt 0.916365 0.035181
vt 0.913610 0.051812
vt 0.906697 0.041259
vt 0.902458 0.029025
vt 0.913952 0.027721
vt 0.913776 0.017084
vt 0.392705 0.503885
vt 0.392705 0.516368
vt 0.392705 0.528850
vt 0.151560 0.528850
vt 0.902459 0.259484
vt 0.661214 0.259502
vt 0.661214 0.271990
vt 0.661214 0.284478
vt 0.914928 0.054018
vt 0.914929 0.247013
vt 0.927451 0.054018
vt 0.927452 0.247013
vt 0.939921 0.054018
vt 0.939922 0.247013
vt 0.902365 0.294723
vt 0.914944 0.294020
vt 0.927775 0.292011
vt 0.940202 0.288636
vt 0.392705 0.286004
vt 0.392705 0.273521
vt 0.151560 0.261038
vt 0.392705 0.261038
vt 0.661213 0.041531
vt 0.902458 0.041548
vt 0.661213 0.029043
vt 0.005597 0.261038
vt 0.114112 0.261038
vt 0.114112 0.273503
vt 0.005597 0.273503
vt 0.114112 0.286021
vt 0.005597 0.286021
vt 0.114112 0.298486
vt 0.005597 0.298486
vt 0.139095 0.491402
vt 0.139095 0.298486
vt 0.126577 0.491402
vt 0.126577 0.298486
vt 0.114112 0.491402
vt 0.661214 0.294726
vt 0.114112 0.503867
vt 0.005597 0.503867
vt 0.005597 0.491402
vt 0.114112 0.516385
vt 0.005597 0.516385
vt 0.005597 0.019893
vt 0.114112 0.019893
vt 0.950174 0.054017
vt 0.950175 0.247013
vt 0.914975 0.007077
vt 0.927493 0.009424
vt 0.939386 0.012722
vt 0.987593 0.493081
vt 0.987593 0.252293
vt 0.995427 0.252293
vt 0.995427 0.493081
vt 0.987593 0.504818
vt 0.995427 0.504818
vt 0.987593 0.516360
vt 0.995427 0.516360
vt 0.987593 0.528097
vt 0.995427 0.528097
vt 0.995427 0.720442
vt 0.987593 0.720442
vt 0.995427 0.732179
vt 0.987593 0.732179
vt 0.995427 0.743721
vt 0.987593 0.743721
vt 0.995427 0.755457
vt 0.987593 0.755457
vt 0.987593 0.996246
vt 0.995427 0.996246
vt 0.003788 0.298248
vt 0.003788 0.286506
vt 0.003788 0.769996
vt 0.003788 0.529088
vt 0.003788 0.285536
vt 0.003788 0.273988
vt 0.003788 0.273018
vt 0.003788 0.261276
vt 0.003788 0.503382
vt 0.003788 0.491640
vt 0.003788 0.515900
vt 0.003788 0.504352
vt 0.003788 0.528612
vt 0.003788 0.516870
vt 0.003788 0.491165
vt 0.003788 0.298724
vt 0.003788 0.260800
vt 0.003788 0.019893
vt 0.951983 0.054255
vt 0.951984 0.246775
vt 0.902722 0.004514
vt 0.914593 0.005220
vt 0.915799 0.005359
vt 0.927347 0.007525
vt 0.928434 0.007827
vt 0.939638 0.010934
vt 0.902127 0.296532
vt 0.661214 0.296535
vt 0.940455 0.290504
vt 0.928749 0.293683
vt 0.927569 0.293943
vt 0.915731 0.295796
vt 0.914557 0.295873
vt 0.902707 0.296535
vt 0.661217 0.004393
vt 0.902136 0.004519
vt 0.763832 0.329841
vt 0.770689 0.333647
vt 0.769811 0.335229
vt 0.762954 0.331424
vt 0.472618 0.333647
vt 0.479475 0.329841
vt 0.480353 0.331424
vt 0.473496 0.335229
vt 0.216587 0.206621
vt 0.406725 0.205734
vt 0.406942 0.221417
vt 0.216516 0.222305
vt 0.175724 0.165952
vt 0.175353 0.062750
vt 0.178839 0.064578
vt 0.179233 0.164073
vt 0.462664 0.059630
vt 0.463329 0.166381
vt 0.447125 0.164665
vt 0.446683 0.061484
vt 0.443622 0.162823
vt 0.443201 0.063339
vt 0.159485 0.167772
vt 0.159485 0.061013
vt 0.215725 0.021646
vt 0.405863 0.020759
vt 0.403941 0.024275
vt 0.217679 0.025144
vt 0.440045 0.159661
vt 0.439611 0.066521
vt 0.218508 0.203105
vt 0.404771 0.202237
vt 0.182405 0.067719
vt 0.182839 0.160859
vt 0.400526 0.027798
vt 0.221127 0.028634
vt 0.221924 0.199582
vt 0.401322 0.198746
vt 0.427645 0.012395
vt 0.441031 0.003875
vt 0.451294 0.020778
vt 0.438335 0.027287
vt 0.458886 0.039089
vt 0.444457 0.043315
vt 0.441547 0.224692
vt 0.427080 0.215477
vt 0.438420 0.199701
vt 0.452543 0.206396
vt 0.444983 0.183109
vt 0.459575 0.187031
vt 0.180808 0.003765
vt 0.194960 0.012741
vt 0.183958 0.028211
vt 0.170093 0.021647
vt 0.177443 0.044490
vt 0.163126 0.040652
vt 0.196117 0.216955
vt 0.181615 0.226280
vt 0.170482 0.207937
vt 0.184650 0.201147
vt 0.163334 0.188500
vt 0.177978 0.184499
vt 0.441615 0.181594
vt 0.434878 0.198480
vt 0.423068 0.214394
vt 0.181357 0.182959
vt 0.188205 0.199904
vt 0.200144 0.215849
vt 0.423868 0.013398
vt 0.434958 0.028393
vt 0.441147 0.044760
vt 0.198884 0.013782
vt 0.187405 0.029368
vt 0.180801 0.045973
vt 0.437564 0.179300
vt 0.430423 0.197397
vt 0.418086 0.213855
vt 0.185420 0.180634
vt 0.192678 0.198795
vt 0.205151 0.215285
vt 0.419191 0.013883
vt 0.430695 0.029374
vt 0.437174 0.046961
vt 0.203753 0.014288
vt 0.191774 0.030414
vt 0.184806 0.048228
vt 0.215508 0.005963
vt 0.405933 0.005075
vt 0.401141 0.159842
vt 0.400707 0.066702
vt 0.221309 0.067538
vt 0.434923 0.179137
vt 0.420750 0.193443
vt 0.202448 0.194460
vt 0.221743 0.160678
vt 0.188142 0.180287
vt 0.549267 0.535907
vt 0.549267 0.440599
vt 0.694040 0.440599
vt 0.694040 0.535907
vt 0.525139 0.316894
vt 0.718168 0.316894
vt 0.698879 0.399656
vt 0.544428 0.399656
vt 0.815603 0.537006
vt 0.734384 0.536159
vt 0.734278 0.434637
vt 0.815490 0.428427
vt 0.187526 0.048243
vt 0.201700 0.033937
vt 0.420002 0.032920
vt 0.434308 0.047093
vt 0.436937 0.578341
vt 0.439642 0.588438
vt 0.419913 0.591606
vt 0.430010 0.571414
vt 0.139619 0.578341
vt 0.136914 0.588438
vt 0.130165 0.587287
vt 0.133369 0.575329
vt 0.146546 0.571414
vt 0.133885 0.574434
vt 0.142639 0.565680
vt 0.156643 0.568709
vt 0.143534 0.565164
vt 0.155492 0.561960
vt 0.443188 0.575329
vt 0.446392 0.587287
vt 0.433917 0.565681
vt 0.442671 0.574434
vt 0.419913 0.568709
vt 0.421064 0.561960
vt 0.433022 0.565164
vt 0.146546 0.611798
vt 0.156643 0.614504
vt 0.155492 0.621253
vt 0.143534 0.618049
vt 0.139619 0.604871
vt 0.142639 0.617532
vt 0.133885 0.608778
vt 0.136914 0.594774
vt 0.133369 0.607883
vt 0.130165 0.595926
vt 0.419913 0.614504
vt 0.430010 0.611798
vt 0.433022 0.618049
vt 0.421064 0.621253
vt 0.436937 0.604871
vt 0.442671 0.608778
vt 0.433917 0.617532
vt 0.439642 0.594774
vt 0.446392 0.595926
vt 0.443188 0.607883
vt 0.130096 0.595409
vt 0.130096 0.587804
vt 0.420548 0.621321
vt 0.156009 0.621321
vt 0.156009 0.561891
vt 0.420548 0.561892
vt 0.446460 0.587804
vt 0.446460 0.595409
vt 0.156643 0.591606
vt 0.701636 0.572884
vt 0.696459 0.561047
vt 0.707915 0.558548
vt 0.713838 0.568738
vt 0.694617 0.548448
vt 0.706544 0.550423
vt 0.696101 0.536273
vt 0.708687 0.539214
vt 0.721338 0.544685
vt 0.714745 0.554123
vt 0.732180 0.551974
vt 0.724331 0.561525
vt 0.695836 0.440394
vt 0.694561 0.427136
vt 0.706729 0.424960
vt 0.708643 0.437338
vt 0.696337 0.412953
vt 0.708057 0.415515
vt 0.700928 0.400084
vt 0.713232 0.403925
vt 0.723813 0.411472
vt 0.714980 0.420588
vt 0.731545 0.421989
vt 0.721192 0.430929
vt 0.541671 0.572884
vt 0.529469 0.568738
vt 0.535392 0.558548
vt 0.546848 0.561047
vt 0.518976 0.561525
vt 0.528562 0.554123
vt 0.511127 0.551974
vt 0.521969 0.544685
vt 0.534620 0.539214
vt 0.536763 0.550423
vt 0.547206 0.536273
vt 0.548690 0.548448
vt 0.542379 0.400084
vt 0.546970 0.412953
vt 0.535250 0.415515
vt 0.530076 0.403925
vt 0.548746 0.427136
vt 0.536578 0.424960
vt 0.547471 0.440394
vt 0.534664 0.437338
vt 0.522115 0.430929
vt 0.528327 0.420588
vt 0.511762 0.421989
vt 0.519495 0.411472
vt 0.718168 0.651868
vt 0.699058 0.573443
vt 0.711683 0.573101
vt 0.730658 0.651727
vt 0.724289 0.571902
vt 0.743109 0.650750
vt 0.736562 0.569431
vt 0.755385 0.648444
vt 0.707343 0.439964
vt 0.707269 0.535942
vt 0.721227 0.437775
vt 0.721155 0.536034
vt 0.730618 0.317896
vt 0.711596 0.400645
vt 0.742676 0.321151
vt 0.724105 0.403919
vt 0.753988 0.326447
vt 0.735753 0.409216
vt 0.544249 0.573443
vt 0.525139 0.651868
vt 0.512650 0.651727
vt 0.531624 0.573101
vt 0.500198 0.650750
vt 0.519018 0.571902
vt 0.487923 0.648444
vt 0.506745 0.569431
vt 0.531711 0.400645
vt 0.512689 0.317896
vt 0.519202 0.403919
vt 0.500631 0.321151
vt 0.507554 0.409216
vt 0.489319 0.326447
vt 0.536038 0.535942
vt 0.535964 0.439964
vt 0.522152 0.536034
vt 0.522080 0.437775
vt 0.508923 0.536159
vt 0.509029 0.434637
vt 0.427817 0.428427
vt 0.427704 0.537006
vt 0.810956 0.809469
vt 0.838390 0.796563
vt 0.838777 0.942132
vt 0.811275 0.929372
vt 0.750859 0.784984
vt 0.760339 0.757602
vt 0.824113 0.774546
vt 0.797765 0.791228
vt 0.760282 0.981545
vt 0.545290 0.995510
vt 0.565646 0.961672
vt 0.565673 0.777071
vt 0.545388 0.743192
vt 0.798052 0.947886
vt 0.824468 0.964706
vt 0.750817 0.954058
vt 0.562483 0.949380
vt 0.562483 0.789380
vt 0.726691 0.797499
vt 0.726490 0.941451
vt 0.789599 0.811146
vt 0.789909 0.927809
vt 0.542753 0.952823
vt 0.512736 0.961591
vt 0.512736 0.777169
vt 0.542753 0.785937
vt 0.564477 0.962052
vt 0.564477 0.776709
vt 0.799527 0.946788
vt 0.799116 0.792115
vt 0.561752 0.966828
vt 0.523198 0.977860
vt 0.523198 0.760900
vt 0.561752 0.771932
vt 0.829669 0.957913
vt 0.800635 0.947486
vt 0.800220 0.791412
vt 0.829198 0.780831
vt 0.850689 0.521680
vt 0.850689 0.512324
vt 0.871177 0.512324
vt 0.871177 0.521680
vt 0.947846 0.561895
vt 0.885808 0.576217
vt 0.879205 0.563766
vt 0.944492 0.547998
vt 0.850689 0.456189
vt 0.850689 0.446833
vt 0.871177 0.446833
vt 0.871177 0.456189
vt 0.876392 0.693088
vt 0.879594 0.682775
vt 0.887076 0.684835
vt 0.883356 0.696366
vt 0.850689 0.484257
vt 0.850689 0.474901
vt 0.871177 0.474901
vt 0.871177 0.484257
vt 0.881460 0.671844
vt 0.889309 0.673207
vt 0.850689 0.502968
vt 0.871177 0.502968
vt 0.882500 0.660394
vt 0.890617 0.661219
vt 0.850689 0.437477
vt 0.871177 0.437478
vt 0.882897 0.648702
vt 0.891235 0.649034
vt 0.850689 0.465545
vt 0.871177 0.465545
vt 0.882515 0.636881
vt 0.891405 0.636881
vt 0.850689 0.493613
vt 0.871177 0.493613
vt 0.882902 0.625063
vt 0.891232 0.624729
vt 0.850689 0.428122
vt 0.871177 0.428122
vt 0.882502 0.613393
vt 0.890608 0.612558
vt 0.850689 0.531036
vt 0.871177 0.531036
vt 0.881449 0.601992
vt 0.889325 0.600631
vt 0.879503 0.590973
vt 0.887015 0.588897
vt 0.876322 0.580547
vt 0.883322 0.577266
vt 0.850689 0.418766
vt 0.871177 0.418766
vt 0.870880 0.571478
vt 0.876830 0.565674
vt 0.944457 0.725705
vt 0.879205 0.709942
vt 0.885892 0.697437
vt 0.947810 0.711814
vt 0.951045 0.697241
vt 0.889525 0.685456
vt 0.891860 0.673594
vt 0.953748 0.682468
vt 0.893291 0.661433
vt 0.955818 0.667451
vt 0.893850 0.649101
vt 0.957186 0.652214
vt 0.360359 0.712129
vt 0.337069 0.711699
vt 0.336713 0.702700
vt 0.360862 0.703095
vt 0.337222 0.693661
vt 0.360509 0.694113
vt 0.957195 0.621555
vt 0.893845 0.624660
vt 0.893272 0.612342
vt 0.955839 0.606316
vt 0.891817 0.600254
vt 0.953786 0.591293
vt 0.889610 0.588247
vt 0.951089 0.576498
vt 0.923229 0.905534
vt 0.935802 0.912793
vt 0.932187 0.919055
vt 0.919614 0.911796
vt 0.876819 0.708015
vt 0.893956 0.636881
vt 0.870880 0.702157
vt 0.919426 0.973908
vt 0.904908 0.973908
vt 0.904908 0.966678
vt 0.919426 0.966678
vt 0.904908 0.904515
vt 0.919426 0.904515
vt 0.919427 0.911746
vt 0.904908 0.911746
vt 0.885749 0.962847
vt 0.878490 0.950274
vt 0.884752 0.946658
vt 0.892011 0.959231
vt 0.878490 0.928150
vt 0.885749 0.915577
vt 0.892011 0.919192
vt 0.884752 0.931766
vt 0.935802 0.965630
vt 0.923229 0.972889
vt 0.919614 0.966627
vt 0.932187 0.959368
vt 0.945845 0.950274
vt 0.938586 0.962847
vt 0.932324 0.959231
vt 0.939583 0.946658
vt 0.877471 0.946471
vt 0.877471 0.931953
vt 0.884702 0.931953
vt 0.884702 0.946471
vt 0.938586 0.915577
vt 0.945845 0.928150
vt 0.939583 0.931766
vt 0.932324 0.919192
vt 0.946864 0.931953
vt 0.946864 0.946471
vt 0.939633 0.946471
vt 0.939633 0.931953
vt 0.901106 0.972889
vt 0.888533 0.965630
vt 0.892148 0.959368
vt 0.904721 0.966627
vt 0.888533 0.912793
vt 0.901106 0.905534
vt 0.904721 0.911796
vt 0.892148 0.919055
vt 0.912168 0.939212
vt 0.938355 0.946229
vt 0.931338 0.958382
vt 0.938355 0.932195
vt 0.931338 0.920041
vt 0.919184 0.913025
vt 0.905151 0.913024
vt 0.892997 0.920041
vt 0.885980 0.932195
vt 0.885980 0.946229
vt 0.892997 0.958382
vt 0.905151 0.965399
vt 0.919184 0.965399
vt 0.919184 0.975187
vt 0.905151 0.975186
vt 0.900257 0.973875
vt 0.888103 0.966858
vt 0.876193 0.946229
vt 0.876193 0.932195
vt 0.877504 0.927301
vt 0.884521 0.915148
vt 0.905151 0.903237
vt 0.919184 0.903237
vt 0.924078 0.904548
vt 0.936232 0.911565
vt 0.948142 0.932195
vt 0.948142 0.946229
vt 0.946831 0.951122
vt 0.939814 0.963276
vt 0.936232 0.966858
vt 0.924078 0.973875
vt 0.884521 0.963276
vt 0.877504 0.951122
vt 0.888103 0.911565
vt 0.900257 0.904548
vt 0.939814 0.915148
vt 0.946831 0.927301
vt 0.927631 0.647062
vt 0.927811 0.636883
vt 0.957719 0.636886
vt 0.927633 0.626703
vt 0.899387 0.636881
vt 0.899355 0.645959
vt 0.899353 0.627803
vt 0.426378 0.750149
vt 0.427640 0.703164
vt 0.434810 0.703179
vt 0.433148 0.757043
vt 0.426604 0.656010
vt 0.433425 0.649139
vt 0.285644 0.702652
vt 0.287848 0.750106
vt 0.281103 0.757043
vt 0.278479 0.702639
vt 0.288057 0.655455
vt 0.281368 0.648499
vt 0.375050 0.727585
vt 0.377744 0.703147
vt 0.375111 0.678287
vt 0.319843 0.702653
vt 0.322752 0.727348
vt 0.322812 0.678378
vt 0.365794 0.717844
vt 0.366130 0.703132
vt 0.365928 0.688680
vt 0.331447 0.702664
vt 0.331785 0.717087
vt 0.331927 0.687975
vt 0.601570 0.054687
vt 0.601571 0.071397
vt 0.593219 0.069154
vt 0.601570 0.037977
vt 0.621984 0.037973
vt 0.621985 0.054686
vt 0.621986 0.071400
vt 0.601570 0.232435
vt 0.601571 0.215725
vt 0.621986 0.215722
vt 0.621985 0.232436
vt 0.548733 0.077000
vt 0.548733 0.210122
vt 0.538166 0.210122
vt 0.538166 0.077000
vt 0.601571 0.210122
vt 0.601571 0.077000
vt 0.621986 0.077000
vt 0.621986 0.210122
vt 0.591003 0.210122
vt 0.591003 0.077000
vt 0.587107 0.063038
vt 0.593219 0.217968
vt 0.580436 0.210122
vt 0.580436 0.077000
vt 0.584870 0.054688
vt 0.587107 0.224084
vt 0.569868 0.210122
vt 0.569868 0.077000
vt 0.587107 0.046337
vt 0.584871 0.232434
vt 0.559301 0.210122
vt 0.559301 0.077000
vt 0.593217 0.040221
vt 0.587107 0.240785
vt 0.593217 0.246901
vt 0.517751 0.210122
vt 0.517751 0.077000
vt 0.601570 0.249145
vt 0.621984 0.249149
vt 0.621986 0.074223
vt 0.601571 0.074223
vt 0.601571 0.212899
vt 0.621986 0.212899
vt 0.601569 0.032374
vt 0.621984 0.032373
vt 0.621984 0.035149
vt 0.601569 0.035151
vt 0.621984 0.254749
vt 0.601569 0.254748
vt 0.601569 0.251971
vt 0.621984 0.251972
vt 0.601072 0.076964
vt 0.590864 0.074228
vt 0.591852 0.071631
vt 0.601516 0.074222
vt 0.590864 0.212894
vt 0.601072 0.210158
vt 0.601516 0.212900
vt 0.591852 0.215491
vt 0.590001 0.073729
vt 0.582529 0.066257
vt 0.584683 0.064501
vt 0.591757 0.071576
vt 0.582529 0.220865
vt 0.590001 0.213393
vt 0.591757 0.215546
vt 0.584683 0.222621
vt 0.582031 0.065394
vt 0.579296 0.055186
vt 0.582039 0.054743
vt 0.584628 0.064406
vt 0.579296 0.231936
vt 0.582031 0.221728
vt 0.584628 0.222716
vt 0.582039 0.232379
vt 0.579296 0.054190
vt 0.582030 0.043982
vt 0.584627 0.044969
vt 0.582039 0.054633
vt 0.582030 0.243140
vt 0.579296 0.232932
vt 0.582039 0.232489
vt 0.584627 0.242153
vt 0.582528 0.043119
vt 0.590000 0.035646
vt 0.591755 0.037799
vt 0.584682 0.044874
vt 0.590000 0.251476
vt 0.582528 0.244003
vt 0.584682 0.242248
vt 0.591755 0.249323
vt 0.590863 0.035147
vt 0.601070 0.032411
vt 0.601514 0.035152
vt 0.591850 0.037744
vt 0.601070 0.254711
vt 0.590863 0.251975
vt 0.591850 0.249378
vt 0.601514 0.251970
vt 0.114045 0.883674
vt 0.158167 0.879586
vt 0.136624 0.921939
vt 0.084411 0.950822
vt 0.142366 0.930993
vt 0.093982 0.965912
vt 0.284806 0.969464
vt 0.261512 0.933149
vt 0.309169 0.933863
vt 0.356323 0.970427
vt 0.239375 0.719631
vt 0.232017 0.779563
vt 0.221189 0.778889
vt 0.221327 0.718506
vt 0.165572 0.770148
vt 0.155915 0.764231
vt 0.177087 0.718204
vt 0.187134 0.722826
vt 0.184634 0.712211
vt 0.217160 0.700815
vt 0.284594 0.981913
vt 0.332178 0.994194
vt 0.071820 0.919118
vt 0.067084 0.955662
vt 0.061424 0.922022
vt 0.102280 0.877930
vt 0.176399 0.777659
vt 0.144931 0.830522
vt 0.125084 0.818806
vt 0.165273 0.979859
vt 0.165489 0.967411
vt 0.225146 0.968506
vt 0.224731 0.992630
vt 0.092358 0.872604
vt 0.114887 0.814830
vt 0.190019 0.931919
vt 0.225765 0.932553
vt 0.194293 0.818399
vt 0.176011 0.848869
vt 0.117108 0.812262
vt 0.063500 0.913060
vt 0.117294 0.990496
vt 0.114045 0.883674
vt 0.084411 0.950822
vt 0.136624 0.921939
vt 0.158167 0.879586
vt 0.093982 0.965912
vt 0.142366 0.930993
vt 0.284806 0.969464
vt 0.356323 0.970427
vt 0.309169 0.933863
vt 0.261512 0.933149
vt 0.239375 0.719631
vt 0.221327 0.718506
vt 0.221189 0.778889
vt 0.232017 0.779563
vt 0.165572 0.770148
vt 0.187134 0.722825
vt 0.177087 0.718204
vt 0.155915 0.764231
vt 0.184634 0.712210
vt 0.217160 0.700814
vt 0.284594 0.981913
vt 0.332178 0.994194
vt 0.071820 0.919118
vt 0.061424 0.922022
vt 0.067084 0.955662
vt 0.102280 0.877930
vt 0.125084 0.818806
vt 0.144931 0.830522
vt 0.176399 0.777659
vt 0.165273 0.979859
vt 0.224731 0.992630
vt 0.225147 0.968506
vt 0.165489 0.967411
vt 0.114887 0.814830
vt 0.092358 0.872604
vt 0.225765 0.932553
vt 0.190019 0.931919
vt 0.176011 0.848869
vt 0.194293 0.818399
vt 0.117108 0.812262
vt 0.063500 0.913060
vt 0.117294 0.990496
vt 0.458684 0.270757
vt 0.454040 0.270770
vt 0.454624 0.268456
vt 0.456283 0.266733
vt 0.458595 0.266010
vt 0.524785 0.270834
vt 0.528893 0.268498
vt 0.529454 0.270834
vt 0.527189 0.266791
vt 0.524861 0.266039
vt 0.527189 0.274880
vt 0.524869 0.275599
vt 0.528859 0.273156
vt 0.458625 0.275516
vt 0.456291 0.274808
vt 0.454603 0.273095
vt 0.452232 0.270762
vt 0.453094 0.267554
vt 0.455389 0.265223
vt 0.458476 0.264271
vt 0.528139 0.265254
vt 0.530432 0.267637
vt 0.524988 0.264271
vt 0.528081 0.276397
vt 0.524985 0.277340
vt 0.530393 0.274067
vt 0.531272 0.270847
vt 0.458477 0.277304
vt 0.455336 0.276304
vt 0.453076 0.273947
vt 0.460533 0.270813
vt 0.456457 0.273117
vt 0.455895 0.270801
vt 0.458144 0.274811
vt 0.460449 0.275559
vt 0.526682 0.270791
vt 0.531345 0.270791
vt 0.530781 0.273120
vt 0.529082 0.274825
vt 0.526758 0.275577
vt 0.526761 0.266028
vt 0.529075 0.266773
vt 0.530773 0.268467
vt 0.458145 0.266772
vt 0.460474 0.266064
vt 0.456462 0.268483
vt 0.454935 0.273970
vt 0.454104 0.270799
vt 0.457203 0.276331
vt 0.460322 0.277308
vt 0.532313 0.273978
vt 0.530031 0.276357
vt 0.526885 0.277344
vt 0.526886 0.264278
vt 0.530014 0.265245
vt 0.532298 0.267605
vt 0.533147 0.270788
vt 0.457190 0.265281
vt 0.460326 0.264278
vt 0.454941 0.267634
vt 0.858444 0.340582
vt 0.852569 0.350758
vt 0.844466 0.346079
vt 0.850341 0.335904
vt 0.867698 0.353261
vt 0.857522 0.359136
vt 0.852843 0.351032
vt 0.863019 0.345157
vt 0.844091 0.334229
vt 0.844091 0.345979
vt 0.834734 0.345979
vt 0.834734 0.334229
vt 0.839413 0.364189
vt 0.827953 0.352730
vt 0.835218 0.348535
vt 0.828484 0.335904
vt 0.834360 0.346079
vt 0.826256 0.350758
vt 0.820381 0.340582
vt 0.823759 0.359995
vt 0.815806 0.345157
vt 0.825982 0.351032
vt 0.821303 0.359136
vt 0.811127 0.353261
vt 0.823759 0.368383
vt 0.809453 0.359510
vt 0.821203 0.359510
vt 0.821203 0.368867
vt 0.809453 0.368867
vt 0.827953 0.375648
vt 0.811127 0.375117
vt 0.821303 0.369242
vt 0.825982 0.377346
vt 0.815806 0.383221
vt 0.835218 0.379842
vt 0.820381 0.387795
vt 0.826256 0.377620
vt 0.834359 0.382298
vt 0.828484 0.392474
vt 0.843607 0.379842
vt 0.834734 0.394149
vt 0.834734 0.382399
vt 0.844091 0.382399
vt 0.844091 0.394149
vt 0.850872 0.375648
vt 0.850340 0.392474
vt 0.844465 0.382298
vt 0.852569 0.377620
vt 0.858444 0.387795
vt 0.855066 0.368383
vt 0.863019 0.383221
vt 0.852843 0.377346
vt 0.857522 0.369242
vt 0.867698 0.375117
vt 0.855066 0.359995
vt 0.869372 0.368868
vt 0.857622 0.368868
vt 0.857622 0.359510
vt 0.869372 0.359510
vt 0.843607 0.348536
vt 0.850872 0.352730
vt 0.954950 0.349693
vt 0.959770 0.349693
vt 0.959770 0.422001
vt 0.954950 0.422001
vt 0.727378 0.692646
vt 0.474301 0.692646
vt 0.474301 0.690521
vt 0.727378 0.690521
vt 0.954950 0.426821
vt 0.900719 0.426821
vt 0.900719 0.422001
vt 0.474301 0.688396
vt 0.727378 0.688396
vt 0.954950 0.499129
vt 0.900719 0.499129
vt 0.474301 0.686271
vt 0.727378 0.686271
vt 0.900719 0.349693
vt 0.900719 0.344873
vt 0.954950 0.344873
vt 0.474301 0.684146
vt 0.727378 0.684146
vt 0.895898 0.349693
vt 0.895898 0.422001
vt 0.474301 0.682021
vt 0.727378 0.682021
s 0
usemtl YandexRover
f 17/1/1 69/2/1 87/3/1 6/4/1
f 97/5/2 55/6/2 65/7/2 76/8/2
f 5/9/3 37/10/3 49/11/3 18/12/3
f 33/13/4 66/14/4 54/15/4 22/16/4
f 5/17/5 8/18/5 10/19/5 9/20/5
f 8/18/6 12/21/6 13/22/6 10/19/6
f 6/23/7 11/24/7 13/22/7 12/21/7
f 11/24/8 15/25/8 16/26/8 13/22/8
f 7/27/9 14/28/9 16/26/9 15/25/9
f 14/28/10 9/20/10 10/19/10 16/26/10
f 10/19/11 13/22/11 16/26/11
f 21/29/12 24/30/12 26/31/12 25/32/12
f 24/30/13 28/33/13 29/34/13 26/31/13
f 22/35/14 27/36/14 29/34/14 28/33/14
f 27/36/15 31/37/15 32/38/15 29/34/15
f 23/39/16 30/40/16 32/38/16 31/37/16
f 30/40/17 25/32/17 26/31/17 32/38/17
f 26/31/18 29/34/18 32/38/18
f 37/41/19 40/42/19 42/43/19 41/44/19
f 40/42/20 44/45/20 45/46/20 42/43/20
f 38/47/21 43/48/21 45/46/21 44/45/21
f 43/48/22 47/49/22 48/50/22 45/46/22
f 39/51/23 46/52/23 48/50/23 47/49/23
f 46/52/24 41/44/24 42/43/24 48/50/24
f 42/43/25 45/46/25 48/50/25
f 53/53/26 56/54/26 58/55/26 57/56/26
f 56/54/27 60/57/27 61/58/27 58/55/27
f 54/59/28 59/60/28 61/58/28 60/57/28
f 59/60/29 63/61/29 64/62/29 61/58/29
f 55/6/30 62/63/30 64/62/30 63/61/30
f 62/63/31 57/56/31 58/55/31 64/62/31
f 58/55/32 61/58/32 64/62/32
f 5/9/33 18/12/33 20/64/33 8/18/33
f 8/18/34 20/64/34 19/65/34 12/21/34
f 12/21/35 19/65/35 17/66/35 6/67/35
f 33/13/36 22/16/36 28/68/36 35/69/36
f 35/69/37 28/68/37 24/30/37 36/70/37
f 36/70/38 24/30/38 21/29/38 34/71/38
f 22/16/39 54/15/39 60/72/39 27/73/39
f 27/73/40 60/72/40 56/74/40 31/75/40
f 31/75/41 56/74/41 53/76/41 23/77/41
f 100/78/42 21/29/42 25/32/42 103/79/42
f 103/79/43 25/32/43 30/40/43 102/80/43
f 102/80/44 30/40/44 23/39/44 96/81/44
f 49/11/45 37/10/45 41/44/45 51/82/45
f 51/82/46 41/44/46 46/52/46 52/83/46
f 52/83/47 46/52/47 39/84/47 50/85/47
f 54/15/48 66/14/48 68/86/48 59/87/48
f 59/87/49 68/86/49 67/88/49 63/61/49
f 63/61/50 67/88/50 65/7/50 55/6/50
f 90/89/51 39/90/51 47/91/51 89/92/51
f 89/92/52 47/91/52 43/93/52 85/94/52
f 85/94/53 43/93/53 38/95/53 86/96/53
f 37/10/54 5/9/54 9/97/54 40/98/54
f 40/98/55 9/97/55 14/99/55 44/100/55
f 44/100/56 14/99/56 7/101/56 38/95/56
f 75/102/1 34/71/1 21/29/1 100/78/1
f 15/103/44 91/104/44 92/105/44 7/101/44
f 11/106/43 93/107/43 91/104/43 15/103/43
f 6/4/42 87/3/42 93/107/42 11/106/42
f 39/90/2 90/89/2 70/108/2 50/109/2
f 53/76/57 94/110/57 96/111/57 23/77/57
f 55/6/51 97/5/51 98/112/51 62/63/51
f 62/63/52 98/112/52 99/113/52 57/56/52
f 57/56/53 99/113/53 94/114/53 53/53/53
f 79/115/1 88/116/1 101/117/1 84/118/1
f 4/119/42 79/115/42 84/118/42 73/120/42
f 3/121/43 4/119/43 73/120/43 72/122/43
f 2/123/44 3/121/44 72/122/44 71/124/44
f 2/123/57 71/124/57 81/125/57 78/126/57
f 78/126/53 81/125/53 83/127/53 77/128/53
f 77/128/52 83/127/52 82/129/52 80/130/52
f 80/130/51 82/129/51 74/131/51 1/132/51
f 95/133/2 1/132/2 74/131/2 104/134/2
f 78/135/4 77/136/4 85/94/4 86/96/4
f 88/137/4 79/138/4 87/3/4 69/2/4
f 77/139/4 80/140/4 89/92/4 85/94/4
f 80/141/4 1/142/4 90/89/4 89/92/4
f 3/143/4 2/144/4 92/105/4 91/104/4
f 4/145/4 3/146/4 91/104/4 93/107/4
f 79/147/4 4/148/4 93/107/4 87/3/4
f 2/149/4 78/150/4 86/96/4 92/105/4
f 1/151/4 95/152/4 70/108/4 90/89/4
f 81/153/3 71/154/3 96/111/3 94/110/3
f 74/155/3 82/156/3 98/112/3 97/5/3
f 82/157/3 83/158/3 99/113/3 98/112/3
f 83/159/3 81/160/3 94/114/3 99/113/3
f 84/161/3 101/162/3 75/102/3 100/78/3
f 71/163/3 72/164/3 102/80/3 96/81/3
f 72/165/3 73/166/3 103/79/3 102/80/3
f 73/167/3 84/168/3 100/78/3 103/79/3
f 104/169/3 74/170/3 97/5/3 76/8/3
f 101/171/57 88/172/57 69/173/57 75/174/57
f 95/175/57 104/176/57 76/177/57 70/178/57
f 134/179/4 117/180/4 109/181/4 126/182/4
f 133/183/58 130/184/58 146/185/58 149/186/58
f 105/187/1 110/188/1 118/189/1 113/190/1
f 113/190/59 118/189/59 142/191/59 137/192/59
f 130/184/2 133/183/2 125/193/2 122/194/2
f 129/195/60 114/196/60 138/197/60 145/198/60
f 137/192/61 142/191/61 154/199/61 164/200/61
f 117/180/62 134/179/62 150/201/62 141/202/62
f 149/186/63 146/185/63 168/203/63 157/204/63
f 145/198/64 138/197/64 162/205/64 165/206/64
f 141/202/65 150/201/65 160/207/65 156/208/65
f 114/209/66 106/210/66 108/211/66 116/212/66
f 116/212/67 108/211/67 107/213/67 115/214/67
f 115/214/68 107/213/68 105/187/68 113/190/68
f 109/215/69 117/216/69 119/217/69 111/218/69
f 111/218/70 119/217/70 120/219/70 112/220/70
f 112/220/71 120/219/71 118/189/71 110/188/71
f 121/221/72 129/222/72 131/223/72 123/224/72
f 123/224/73 131/223/73 132/225/73 124/226/73
f 124/226/74 132/225/74 130/184/74 122/194/74
f 134/227/75 126/228/75 128/229/75 136/230/75
f 136/230/76 128/229/76 127/231/76 135/232/76
f 135/232/77 127/231/77 125/193/77 133/183/77
f 142/191/78 118/189/78 120/219/78 144/233/78
f 144/233/79 120/219/79 119/217/79 143/234/79
f 143/234/80 119/217/80 117/216/80 141/235/80
f 133/183/81 149/186/81 151/236/81 135/232/81
f 135/232/82 151/236/82 152/237/82 136/230/82
f 136/230/83 152/237/83 150/238/83 134/227/83
f 138/239/84 114/209/84 116/212/84 140/240/84
f 140/240/85 116/212/85 115/214/85 139/241/85
f 139/241/86 115/214/86 113/190/86 137/192/86
f 129/222/87 145/242/87 147/243/87 131/223/87
f 131/223/88 147/243/88 148/244/88 132/225/88
f 132/225/89 148/244/89 146/185/89 130/184/89
f 154/199/90 142/191/90 144/233/90 153/245/90
f 153/245/91 144/233/91 143/234/91 155/246/91
f 155/246/92 143/234/92 141/235/92 156/247/92
f 149/186/93 157/204/93 158/248/93 151/236/93
f 151/236/94 158/248/94 159/249/94 152/237/94
f 152/237/95 159/249/95 160/250/95 150/238/95
f 162/251/96 138/239/96 140/240/96 161/252/96
f 161/252/97 140/240/97 139/241/97 163/253/97
f 163/253/98 139/241/98 137/192/98 164/200/98
f 145/242/99 165/254/99 166/255/99 147/243/99
f 147/243/100 166/255/100 167/256/100 148/244/100
f 148/244/101 167/256/101 168/203/101 146/185/101
f 114/196/3 129/195/3 121/257/3 106/258/3
f 154/199/57 172/259/57 169/260/57 164/200/57
f 162/205/57 169/260/57 170/261/57 165/206/57
f 154/199/57 153/262/57 172/259/57
f 153/262/57 155/263/57 172/259/57
f 156/208/57 172/259/57 155/263/57
f 160/207/57 159/264/57 171/265/57
f 172/259/57 156/208/57 160/207/57 171/265/57
f 159/264/57 158/266/57 171/265/57
f 158/266/57 157/204/57 171/265/57
f 169/260/57 172/259/57 171/265/57 170/261/57
f 233/267/102 244/268/102 219/269/102 208/270/102
f 66/271/103 33/272/103 220/273/103 243/274/103
f 17/275/104 209/276/104 221/277/104 69/278/104
f 168/203/57 170/261/57 171/265/57 157/204/57
f 168/203/57 167/279/57 170/261/57
f 167/279/57 166/280/57 170/261/57
f 165/206/57 170/261/57 166/280/57
f 162/205/57 161/281/57 169/260/57
f 161/281/57 163/282/57 169/260/57
f 163/282/57 164/200/57 169/260/57
f 188/283/57 186/284/57 206/285/57
f 187/286/57 188/283/57 206/285/57
f 179/287/105 177/288/105 190/289/105 189/290/105
f 180/291/106 179/287/106 189/292/106 191/293/106
f 178/294/107 180/291/107 191/295/107 192/296/107
f 186/284/108 188/283/108 194/297/108 193/298/108
f 188/283/109 187/286/109 195/299/109 194/300/109
f 187/286/110 185/301/110 196/302/110 195/303/110
f 175/304/111 173/305/111 198/306/111 197/307/111
f 176/308/112 175/304/112 197/309/112 199/310/112
f 174/311/113 176/308/113 199/312/113 200/313/113
f 182/314/114 184/315/114 202/316/114 201/317/114
f 184/315/115 183/318/115 203/319/115 202/320/115
f 183/318/116 181/321/116 204/322/116 203/323/116
f 177/288/43 174/311/43 200/324/43 190/325/43
f 173/305/55 182/314/55 201/326/55 198/327/55
f 185/301/40 178/294/40 192/328/40 196/329/40
f 181/321/52 186/284/52 193/330/52 204/331/52
f 185/301/57 187/286/57 206/285/57
f 186/284/57 181/321/57 206/285/57
f 181/321/57 183/318/57 206/285/57
f 183/318/57 184/315/57 206/285/57
f 184/315/57 182/314/57 206/285/57
f 173/305/57 175/304/57 205/332/57
f 175/304/57 176/308/57 205/332/57
f 176/308/57 174/311/57 205/332/57
f 174/311/57 177/288/57 205/332/57
f 177/288/57 179/287/57 205/332/57
f 179/287/57 180/291/57 205/332/57
f 178/294/57 205/332/57 180/291/57
f 178/294/57 185/301/57 206/285/57 205/332/57
f 173/305/57 205/332/57 206/285/57 182/314/57
f 207/333/117 210/334/117 212/335/117 211/336/117
f 210/334/118 214/337/118 215/338/118 212/335/118
f 208/339/119 213/340/119 215/338/119 214/337/119
f 213/340/120 217/341/120 218/342/120 215/338/120
f 209/343/121 216/344/121 218/342/121 217/341/121
f 216/344/122 211/336/122 212/335/122 218/342/122
f 212/335/123 215/338/123 218/342/123
f 219/345/124 222/346/124 224/347/124 223/348/124
f 222/346/125 226/349/125 227/350/125 224/347/125
f 220/351/126 225/352/126 227/350/126 226/349/126
f 225/352/127 229/353/127 230/354/127 227/350/127
f 221/355/128 228/356/128 230/354/128 229/353/128
f 228/356/129 223/348/129 224/347/129 230/354/129
f 224/347/130 227/350/130 230/354/130
f 231/357/131 234/358/131 236/359/131 235/360/131
f 234/358/132 238/361/132 239/362/132 236/359/132
f 232/363/133 237/364/133 239/362/133 238/361/133
f 237/364/134 241/365/134 242/366/134 239/362/134
f 233/367/135 240/368/135 242/366/135 241/365/135
f 240/368/136 235/360/136 236/359/136 242/366/136
f 236/359/137 239/362/137 242/366/137
f 243/369/138 246/370/138 248/371/138 247/372/138
f 246/370/139 250/373/139 251/374/139 248/371/139
f 244/375/140 249/376/140 251/374/140 250/373/140
f 249/376/141 253/377/141 254/378/141 251/374/141
f 245/379/142 252/380/142 254/378/142 253/377/142
f 252/380/143 247/372/143 248/371/143 254/378/143
f 248/371/144 251/374/144 254/378/144
f 18/381/145 207/382/145 211/383/145 20/384/145
f 20/384/146 211/383/146 216/385/146 19/386/146
f 19/386/147 216/385/147 209/387/147 17/388/147
f 208/270/148 219/269/148 223/389/148 213/390/148
f 213/390/149 223/389/149 228/391/149 217/392/149
f 217/392/150 228/391/150 221/277/150 209/276/150
f 220/273/151 33/272/151 35/393/151 225/394/151
f 225/394/152 35/393/152 36/395/152 229/396/152
f 229/396/153 36/395/153 34/397/153 221/398/153
f 231/399/154 49/400/154 51/401/154 234/402/154
f 234/402/155 51/401/155 52/403/155 238/404/155
f 238/404/156 52/403/156 50/405/156 232/406/156
f 66/271/157 243/274/157 247/407/157 68/408/157
f 68/408/158 247/407/158 252/409/158 67/410/158
f 67/410/159 252/409/159 245/411/159 65/412/159
f 244/268/160 233/267/160 241/413/160 249/414/160
f 249/414/161 241/413/161 237/415/161 253/416/161
f 253/416/162 237/415/162 232/417/162 245/418/162
f 207/382/163 231/399/163 235/360/163 210/334/163
f 210/334/164 235/360/164 240/368/164 214/337/164
f 214/337/165 240/368/165 233/267/165 208/270/165
f 243/274/166 220/273/166 226/349/166 246/370/166
f 246/370/167 226/349/167 222/346/167 250/373/167
f 250/373/168 222/346/168 219/269/168 244/268/168
f 18/381/169 49/400/169 231/399/169 207/382/169
f 70/419/170 245/418/170 232/417/170 50/420/170
f 76/177/170 245/411/170 70/178/170
f 65/412/170 245/411/170 76/177/170
f 75/174/104 69/173/104 221/398/104
f 34/397/104 75/174/104 221/398/104
f 279/421/171 276/422/171 275/423/171 273/424/171
f 264/425/172 256/426/172 277/427/172
f 278/428/173 264/425/173 277/427/173
f 255/429/174 263/430/174 259/431/174
f 264/425/175 268/432/175 256/426/175
f 268/432/176 269/433/176 256/426/176
f 271/434/177 274/435/177 258/436/177
f 258/436/178 274/435/178 255/429/178
f 261/437/179 266/438/179 265/439/179 257/440/179
f 257/440/180 265/439/180 280/441/180 272/442/180
f 260/443/181 262/444/181 270/445/181 267/446/181
f 259/447/182 260/443/182 261/437/182
f 266/438/183 267/446/183 268/448/183
f 271/449/184 272/442/184 273/424/184
f 278/450/185 279/421/185 280/441/185
f 261/437/186 257/440/186 258/436/186 259/431/186
f 262/444/187 260/443/187 259/451/187 263/452/187
f 266/438/188 261/437/188 260/443/188 267/446/188
f 269/453/189 268/454/189 267/446/189 270/445/189
f 265/439/190 266/438/190 268/432/190 264/425/190
f 273/424/191 275/423/191 274/455/191 271/456/191
f 276/422/192 279/421/192 278/457/192 277/458/192
f 272/442/193 280/441/193 279/421/193 273/424/193
f 280/441/194 265/439/194 264/425/194 278/428/194
f 257/440/195 272/442/195 271/434/195 258/436/195
f 258/436/196 255/429/196 259/431/196
f 316/459/197 315/460/197 365/461/197 364/462/197
f 303/463/198 340/464/198 317/465/198 282/466/198
f 309/467/199 308/468/199 372/469/199 371/470/199
f 305/471/200 307/472/200 321/473/200 319/474/200
f 312/475/201 311/476/201 369/477/201 368/478/201
f 307/472/202 308/479/202 323/480/202 321/473/202
f 315/460/203 314/481/203 366/482/203 365/461/203
f 308/479/204 309/483/204 325/484/204 323/480/204
f 308/468/205 307/485/205 373/486/205 372/469/205
f 309/483/206 310/487/206 327/488/206 325/484/206
f 311/476/207 310/489/207 370/490/207 369/477/207
f 310/487/208 311/491/208 329/492/208 327/488/208
f 314/481/209 313/493/209 367/494/209 366/482/209
f 311/491/210 312/495/210 331/496/210 329/492/210
f 307/485/211 305/497/211 374/498/211 373/486/211
f 312/495/212 313/499/212 333/500/212 331/496/212
f 306/501/213 316/459/213 364/462/213 375/502/213
f 313/499/214 314/503/214 335/504/214 333/500/214
f 310/489/215 309/467/215 371/470/215 370/490/215
f 314/503/216 315/505/216 337/506/216 335/504/216
f 313/493/217 312/475/217 368/478/217 367/494/217
f 315/505/218 316/507/218 339/508/218 337/506/218
f 305/497/219 306/509/219 375/510/219 374/498/219
f 316/507/220 306/511/220 318/512/220 339/508/220
f 282/513/221 317/514/221 320/515/221 284/516/221
f 286/517/222 322/518/222 324/519/222 288/520/222
f 288/520/223 324/519/223 326/521/223 290/522/223
f 290/522/224 326/521/224 382/523/224 378/524/224
f 292/525/207 328/526/207 405/527/207 403/528/207
f 403/528/201 405/527/201 332/529/201 296/530/201
f 380/531/225 383/532/225 334/533/225 298/534/225
f 298/534/226 334/533/226 336/535/226 300/536/226
f 300/536/227 336/535/227 338/537/227 302/538/227
f 302/538/228 338/537/228 340/464/228 303/463/228
f 295/539/199 297/540/199 376/541/199 348/542/199
f 284/516/229 320/515/229 322/518/229 286/517/229
f 320/515/230 317/514/230 318/543/230 319/474/230
f 322/518/231 320/515/231 319/474/231 321/473/231
f 324/519/232 322/518/232 321/473/232 323/480/232
f 326/521/233 324/519/233 323/480/233 325/484/233
f 382/523/234 326/521/234 325/484/234 327/488/234
f 381/544/235 382/523/235 327/488/235 329/492/235
f 383/532/236 381/544/236 329/492/236 331/496/236
f 334/533/237 383/532/237 331/496/237 333/500/237
f 336/535/238 334/533/238 333/500/238 335/504/238
f 338/537/239 336/535/239 335/504/239 337/506/239
f 340/464/240 338/537/240 337/506/240 339/508/240
f 317/465/241 340/464/241 339/508/241 318/512/241
f 306/545/242 305/471/242 319/474/242 318/543/242
f 341/546/197 283/547/197 342/548/197 281/549/197
f 293/550/215 295/551/215 348/552/215 347/553/215
f 285/554/209 287/555/209 377/556/209 343/557/209
f 289/558/201 291/559/201 346/560/201 345/561/201
f 304/562/213 341/563/213 281/564/213 352/565/213
f 301/566/219 304/567/219 352/568/219 351/569/219
f 287/570/217 289/571/217 345/572/217 377/573/217
f 297/574/205 299/575/205 350/576/205 376/577/205
f 299/578/211 301/579/211 351/580/211 350/581/211
f 283/582/203 285/583/203 343/584/203 342/585/203
f 291/586/207 293/587/207 347/588/207 346/589/207
f 353/590/243 354/591/243 355/592/243
f 353/590/243 356/593/243 354/591/243
f 353/590/243 349/594/243 356/593/243
f 353/590/243 358/595/243 349/594/243
f 353/590/243 357/596/243 358/595/243
f 353/590/243 360/597/243 357/596/243
f 353/590/243 359/598/243 360/597/243
f 353/590/243 344/599/243 359/598/243
f 353/590/243 362/600/243 344/599/243
f 353/590/243 361/601/243 362/600/243
f 353/590/243 363/602/243 361/601/243
f 353/590/243 355/592/243 363/602/243
f 351/569/244 352/568/244 355/592/244 354/591/244
f 350/581/245 351/580/245 354/591/245 356/593/245
f 347/553/246 348/552/246 358/595/246 357/596/246
f 345/561/247 346/560/247 360/597/247 359/598/247
f 342/585/248 343/584/248 362/600/248 361/601/248
f 281/549/249 342/548/249 361/601/249 363/602/249
f 283/547/250 341/546/250 364/603/250 365/604/250
f 285/583/251 283/582/251 365/605/251 366/606/251
f 289/571/252 287/570/252 367/607/252 368/608/252
f 291/559/253 289/558/253 368/609/253 369/610/253
f 295/551/254 293/550/254 370/611/254 371/612/254
f 297/540/255 295/539/255 371/613/255 372/614/255
f 301/579/256 299/578/256 373/615/256 374/616/256
f 304/567/257 301/566/257 374/617/257 375/618/257
f 348/542/258 376/541/258 349/594/258 358/595/258
f 377/573/259 345/572/259 359/598/259 344/599/259
f 341/563/260 304/562/260 375/619/260 364/620/260
f 287/555/261 285/554/261 366/621/261 367/622/261
f 293/587/262 291/586/262 369/623/262 370/624/262
f 299/575/263 297/574/263 372/625/263 373/626/263
f 352/565/264 281/564/264 363/602/264 355/592/264
f 343/557/265 377/556/265 344/599/265 362/600/265
f 346/589/266 347/588/266 357/596/266 360/597/266
f 376/577/267 350/576/267 356/593/267 349/594/267
f 384/627/268 294/628/268 379/629/268 378/524/268
f 294/628/269 386/630/269 380/531/269 379/629/269
f 330/631/270 388/632/270 382/523/270 381/544/270
f 389/633/271 330/631/271 381/544/271 383/532/271
f 388/632/272 384/627/272 378/524/272 382/523/272
f 386/630/273 389/633/273 383/532/273 380/531/273
f 390/634/274 385/635/274 294/636/274 384/637/274
f 385/635/275 392/638/275 386/639/275 294/636/275
f 387/640/276 394/641/276 388/642/276 330/643/276
f 395/644/277 387/640/277 330/643/277 389/645/277
f 394/641/278 390/634/278 384/637/278 388/642/278
f 392/638/279 395/644/279 389/645/279 386/639/279
f 396/646/280 391/647/280 385/635/280 390/634/280
f 391/647/281 398/648/281 392/638/281 385/635/281
f 393/649/282 400/650/282 394/641/282 387/640/282
f 401/651/283 393/649/283 387/640/283 395/644/283
f 400/650/284 396/646/284 390/634/284 394/641/284
f 398/648/285 401/651/285 395/644/285 392/638/285
f 402/652/286 397/653/286 391/647/286 396/646/286
f 397/653/287 404/654/287 398/648/287 391/647/287
f 399/655/288 406/656/288 400/650/288 393/649/288
f 407/657/289 399/655/289 393/649/289 401/651/289
f 406/656/290 402/652/290 396/646/290 400/650/290
f 404/654/291 407/657/291 401/651/291 398/648/291
f 292/525/292 403/528/292 397/653/292 402/652/292
f 403/528/293 296/530/293 404/654/293 397/653/293
f 405/527/274 328/526/274 406/656/274 399/655/274
f 332/529/275 405/527/275 399/655/275 407/657/275
f 328/526/294 292/525/294 402/652/294 406/656/294
f 296/530/295 332/529/295 407/657/295 404/654/295
f 408/658/1 431/659/1 437/660/1
f 408/658/1 412/661/1 427/662/1 411/663/1
f 431/659/1 408/658/1 411/663/1 422/664/1
f 409/665/2 433/666/2 418/667/2 410/668/2
f 460/669/296 464/670/296 415/671/296 413/672/296
f 434/673/297 430/674/297 421/675/297 419/676/297
f 430/674/298 434/673/298 440/677/298 436/678/298
f 408/658/1 437/660/1 443/679/1
f 409/665/2 439/680/2 433/666/2
f 436/678/299 440/677/299 446/681/299 442/682/299
f 408/658/1 443/679/1 449/683/1
f 409/665/2 445/684/2 439/680/2
f 442/682/300 446/681/300 452/685/300 448/686/300
f 408/658/1 449/683/1 455/687/1
f 409/665/2 451/688/2 445/684/2
f 448/686/301 452/685/301 458/689/301 454/690/301
f 408/658/1 455/687/1 461/691/1
f 409/665/2 457/692/2 451/688/2
f 454/690/302 458/689/302 464/670/302 460/669/302
f 409/665/2 463/693/2 457/692/2
f 413/672/303 415/671/303 424/694/303 428/695/303
f 416/696/2 409/665/2 410/668/2 425/697/2
f 409/665/2 416/696/2 463/693/2
f 431/659/304 422/664/304 423/698/304 432/699/304
f 432/699/305 423/698/305 421/675/305 430/674/305
f 418/667/306 433/666/306 435/700/306 420/701/306
f 420/701/307 435/700/307 434/673/307 419/676/307
f 413/702/308 428/703/308 429/704/308 414/705/308
f 414/705/309 429/704/309 427/662/309 412/661/309
f 424/706/310 415/707/310 417/708/310 426/709/310
f 426/709/311 417/708/311 416/696/311 425/697/311
f 430/710/312 436/711/312 438/712/312 432/713/312
f 432/713/313 438/712/313 437/660/313 431/659/313
f 440/714/314 434/715/314 435/716/314 441/717/314
f 441/717/315 435/716/315 433/666/315 439/680/315
f 436/718/316 442/719/316 444/720/316 438/721/316
f 438/721/317 444/720/317 443/679/317 437/660/317
f 446/722/318 440/723/318 441/724/318 447/725/318
f 447/725/319 441/724/319 439/680/319 445/684/319
f 442/726/320 448/727/320 450/728/320 444/729/320
f 444/729/321 450/728/321 449/683/321 443/679/321
f 452/730/322 446/731/322 447/732/322 453/733/322
f 453/733/323 447/732/323 445/684/323 451/688/323
f 448/734/324 454/735/324 456/736/324 450/737/324
f 450/737/325 456/736/325 455/687/325 449/683/325
f 458/738/326 452/739/326 453/740/326 459/741/326
f 459/741/327 453/740/327 451/688/327 457/692/327
f 454/742/328 460/743/328 462/744/328 456/745/328
f 456/745/329 462/744/329 461/691/329 455/687/329
f 464/746/330 458/747/330 459/748/330 465/749/330
f 465/749/331 459/748/331 457/692/331 463/693/331
f 460/750/332 413/751/332 414/752/332 462/753/332
f 462/753/333 414/752/333 412/661/333 461/691/333
f 415/754/334 464/755/334 465/756/334 417/757/334
f 417/757/335 465/756/335 463/693/335 416/696/335
f 408/658/1 461/691/1 412/661/1
f 492/758/336 490/759/336 469/760/336 475/761/336
f 475/761/337 469/760/337 473/762/337 476/763/337
f 486/764/338 485/765/338 471/766/338 477/767/338
f 477/768/339 471/769/339 467/770/339 474/771/339
f 484/772/340 488/773/340 470/774/340 466/775/340
f 470/776/341 477/777/341 474/771/341 466/775/341
f 488/778/342 486/764/342 477/767/342 470/779/342
f 468/780/111 475/761/111 476/781/111 472/782/111
f 493/783/343 492/758/343 475/761/343 468/780/343
f 484/772/344 489/784/344 483/785/344 478/786/344
f 491/787/345 495/788/345 482/789/345 480/790/345
f 493/783/346 491/791/346 480/792/346 478/786/346
f 495/788/338 494/793/338 481/794/338 482/789/338
f 489/784/336 487/795/336 479/796/336 483/785/336
f 474/771/336 467/770/336 487/795/336 489/784/336
f 466/775/347 474/771/347 489/784/347 484/772/347
f 480/790/348 482/789/348 486/764/348 488/778/348
f 478/786/349 480/797/349 488/773/349 484/772/349
f 482/789/338 481/794/338 485/765/338 486/764/338
f 476/763/338 473/762/338 494/793/338 495/788/338
f 468/780/350 472/798/350 491/791/350 493/783/350
f 472/799/351 476/763/351 495/788/351 491/787/351
f 478/786/352 483/785/352 492/758/352 493/783/352
f 483/785/336 479/796/336 490/759/336 492/758/336
f 522/800/353 505/801/353 499/802/353 520/803/353
f 505/801/354 506/804/354 503/805/354 499/802/354
f 516/806/355 507/807/355 501/808/355 515/809/355
f 507/810/356 504/811/356 497/812/356 501/813/356
f 514/814/357 496/815/357 500/816/357 518/817/357
f 500/818/358 496/815/358 504/811/358 507/819/358
f 518/820/359 500/821/359 507/807/359 516/806/359
f 498/822/114 502/823/114 506/824/114 505/801/114
f 523/825/360 498/822/360 505/801/360 522/800/360
f 514/814/361 508/826/361 513/827/361 519/828/361
f 521/829/362 510/830/362 512/831/362 525/832/362
f 523/825/363 508/826/363 510/833/363 521/834/363
f 525/832/355 512/831/355 511/835/355 524/836/355
f 519/828/353 513/827/353 509/837/353 517/838/353
f 504/811/353 519/828/353 517/838/353 497/812/353
f 496/815/364 514/814/364 519/828/364 504/811/364
f 510/830/365 518/820/365 516/806/365 512/831/365
f 508/826/366 514/814/366 518/817/366 510/839/366
f 512/831/355 516/806/355 515/809/355 511/835/355
f 506/804/355 525/832/355 524/836/355 503/805/355
f 498/822/367 523/825/367 521/834/367 502/840/367
f 502/841/368 521/829/368 525/832/368 506/804/368
f 508/826/369 523/825/369 522/800/369 513/827/369
f 513/827/353 522/800/353 520/803/353 509/837/353
f 526/842/102 543/843/102 542/844/102
f 526/842/102 542/844/102 544/845/102
f 526/842/102 544/845/102 545/846/102
f 535/847/102 546/848/102 552/849/102
f 535/847/102 547/850/102 546/848/102
f 535/847/102 548/851/102 547/850/102
f 535/847/102 550/852/102 549/853/102
f 535/847/102 551/854/102 550/852/102
f 535/847/102 552/849/102 551/854/102
f 526/842/102 554/855/102 553/856/102
f 526/842/102 553/856/102 555/857/102
f 526/842/102 555/857/102 543/843/102
f 535/847/102 549/853/102 554/855/102 526/842/102
f 526/842/102 545/846/102 548/851/102 535/847/102
f 542/844/370 543/843/370 527/858/370 528/859/370
f 544/845/371 542/844/371 528/859/371 529/860/371
f 545/846/372 544/845/372 529/860/372 530/861/372
f 546/848/373 547/850/373 540/862/373 541/863/373
f 547/850/374 548/851/374 539/864/374 540/862/374
f 549/853/375 550/852/375 532/865/375 531/866/375
f 550/852/376 551/854/376 533/867/376 532/865/376
f 551/854/358 552/849/358 534/868/358 533/867/358
f 553/856/377 554/855/377 536/869/377 537/870/377
f 555/857/378 553/856/378 537/870/378 538/871/378
f 543/843/379 555/857/379 538/871/379 527/858/379
f 552/849/341 546/848/341 541/863/341 534/868/341
f 554/855/380 549/853/380 531/866/380 536/869/380
f 548/851/381 545/846/381 530/861/381 539/864/381
f 556/872/102 572/873/102 573/874/102
f 556/872/102 574/875/102 572/873/102
f 556/872/102 575/876/102 574/875/102
f 565/877/102 582/878/102 576/879/102
f 565/877/102 576/879/102 577/880/102
f 565/877/102 577/880/102 578/881/102
f 565/877/102 579/882/102 580/883/102
f 565/877/102 580/883/102 581/884/102
f 565/877/102 581/884/102 582/878/102
f 556/872/102 583/885/102 584/886/102
f 556/872/102 585/887/102 583/885/102
f 556/872/102 573/874/102 585/887/102
f 565/877/102 556/872/102 584/886/102 579/882/102
f 556/872/102 565/877/102 578/881/102 575/876/102
f 572/873/379 558/888/379 557/889/379 573/874/379
f 574/875/378 559/890/378 558/888/378 572/873/378
f 575/876/377 560/891/377 559/890/377 574/875/377
f 576/879/376 571/892/376 570/893/376 577/880/376
f 577/880/375 570/893/375 569/894/375 578/881/375
f 579/882/374 561/895/374 562/896/374 580/883/374
f 580/883/373 562/896/373 563/897/373 581/884/373
f 581/884/341 563/897/341 564/898/341 582/878/341
f 583/885/372 567/899/372 566/900/372 584/886/372
f 585/887/371 568/901/371 567/899/371 583/885/371
f 573/874/370 557/889/370 568/901/370 585/887/370
f 582/878/358 564/898/358 571/892/358 576/879/358
f 584/886/381 566/900/381 561/895/381 579/882/381
f 578/881/380 569/894/380 560/891/380 575/876/380
f 587/902/382 599/903/382 602/904/382 588/905/382
f 598/906/383 622/907/383 599/908/383 587/909/383
f 588/910/40 602/911/40 604/912/40 589/913/40
f 586/914/1 605/915/1 603/916/1
f 589/917/384 604/918/384 606/919/384 590/920/384
f 586/914/1 607/921/1 605/915/1
f 590/922/385 606/923/385 608/924/385 591/925/385
f 586/914/1 609/926/1 607/921/1
f 591/927/386 608/928/386 610/929/386 592/930/386
f 586/914/1 611/931/1 609/926/1
f 592/932/387 610/933/387 612/934/387 593/935/387
f 586/914/1 613/936/1 611/931/1
f 593/937/388 612/938/388 614/939/388 594/940/388
f 586/914/1 615/941/1 613/936/1
f 594/942/389 614/943/389 616/944/389 595/945/389
f 586/914/1 617/946/1 615/941/1
f 595/947/390 616/948/390 618/949/390 596/950/390
f 586/914/1 619/951/1 617/946/1
f 596/952/391 618/953/391 620/954/391 597/955/391
f 586/914/1 621/956/1 619/951/1
f 597/957/55 620/958/55 622/959/55 598/960/55
f 586/914/1 601/961/1 600/962/1
f 586/914/1 603/916/1 601/961/1
f 602/904/392 599/903/392 600/962/392 601/961/392
f 604/912/393 602/911/393 601/961/393 603/916/393
f 606/919/394 604/918/394 603/916/394 605/915/394
f 608/924/395 606/923/395 605/915/395 607/921/395
f 610/929/396 608/928/396 607/921/396 609/926/396
f 612/934/397 610/933/397 609/926/397 611/931/397
f 614/939/398 612/938/398 611/931/398 613/936/398
f 616/944/399 614/943/399 613/936/399 615/941/399
f 618/949/400 616/948/400 615/941/400 617/946/400
f 620/954/401 618/953/401 617/946/401 619/951/401
f 622/959/402 620/958/402 619/951/402 621/956/402
f 599/908/403 622/907/403 621/956/403 600/962/403
f 586/914/1 600/962/1 621/956/1
f 635/963/3 639/964/3 637/965/3 624/966/3
f 625/967/404 626/968/404 628/969/404 627/970/404
f 637/971/102 638/972/102 623/973/102 624/966/102
f 627/970/405 628/969/405 630/974/405 629/975/405
f 639/976/2 640/977/2 638/972/2 637/971/2
f 629/975/102 630/974/102 632/978/102 631/979/102
f 635/963/57 636/980/57 640/981/57 639/982/57
f 631/979/406 632/978/406 634/983/406 633/984/406
f 640/985/4 636/980/4 623/973/4 638/986/4
f 624/966/1 623/973/1 636/980/1 635/963/1
f 633/984/407 634/983/407 626/987/407 625/988/407
f 38/95/57 7/101/57 92/105/57 86/96/57
