# Blender 4.2.0
# www.blender.org
mtllib YandexRover-wheel.mtl
o Wheel
v -0.110000 -0.000000 0.000000
v 0.125000 0.000000 -0.000000
v -0.125000 0.000000 -0.262551
v -0.050000 0.000000 -0.390000
v -0.103033 0.000000 -0.367603
v 0.050000 0.000000 -0.390000
v 0.125000 0.000000 -0.313531
v 0.103033 0.000000 -0.367603
v -0.050000 -0.149246 -0.360313
v -0.125000 -0.100474 -0.242566
v -0.103033 -0.140675 -0.339621
v 0.125000 -0.119983 -0.289665
v 0.050000 -0.149246 -0.360313
v 0.103033 -0.140675 -0.339621
v -0.050000 -0.275772 -0.275772
v -0.125000 -0.185652 -0.185652
v -0.103033 -0.259934 -0.259934
v 0.125000 -0.221700 -0.221700
v 0.050000 -0.275772 -0.275772
v 0.103033 -0.259934 -0.259934
v -0.050000 -0.360313 -0.149247
v -0.125000 -0.242566 -0.100474
v -0.103033 -0.339621 -0.140675
v 0.125000 -0.289665 -0.119983
v 0.050000 -0.360313 -0.149247
v 0.103033 -0.339621 -0.140676
v -0.050000 -0.390000 -0.000000
v -0.125000 -0.262551 -0.000000
v -0.103033 -0.367603 -0.000000
v 0.125000 -0.313531 -0.000000
v 0.050000 -0.390000 -0.000000
v 0.103033 -0.367603 -0.000000
v -0.050000 -0.360313 0.149246
v -0.125000 -0.242566 0.100474
v -0.103033 -0.339621 0.140675
v 0.125000 -0.289665 0.119983
v 0.050000 -0.360313 0.149246
v 0.103033 -0.339621 0.140675
v -0.050000 -0.275772 0.275772
v -0.125000 -0.185652 0.185652
v -0.103033 -0.259934 0.259934
v 0.125000 -0.221700 0.221700
v 0.050000 -0.275772 0.275772
v 0.103033 -0.259934 0.259934
v -0.050000 -0.149247 0.360313
v -0.125000 -0.100474 0.242566
v -0.103033 -0.140676 0.339621
v 0.125000 -0.119983 0.289664
v 0.050000 -0.149247 0.360313
v 0.103033 -0.140675 0.339621
v -0.050000 -0.000000 0.390000
v -0.125000 -0.000000 0.262551
v -0.103033 -0.000000 0.367603
v 0.125000 -0.000000 0.313531
v 0.050000 -0.000000 0.390000
v 0.103033 -0.000000 0.367603
v -0.050000 0.149246 0.360313
v -0.125000 0.100474 0.242566
v -0.103033 0.140675 0.339621
v 0.125000 0.119983 0.289665
v 0.050000 0.149246 0.360313
v 0.103033 0.140675 0.339621
v -0.050000 0.275772 0.275772
v -0.125000 0.185652 0.185652
v -0.103033 0.259934 0.259934
v 0.125000 0.221700 0.221700
v 0.050000 0.275772 0.275772
v 0.103033 0.259934 0.259934
v -0.050000 0.360313 0.149247
v -0.125000 0.242566 0.100474
v -0.103033 0.339621 0.140676
v 0.125000 0.289665 0.119983
v 0.050000 0.360313 0.149247
v 0.103033 0.339621 0.140675
v -0.050000 0.390000 0.000000
v -0.125000 0.262551 0.000000
v -0.103033 0.367603 0.000000
v 0.125000 0.313531 0.000000
v 0.050000 0.390000 0.000000
v 0.103033 0.367603 0.000000
v -0.050000 0.360313 -0.149246
v -0.125000 0.242566 -0.100474
v -0.103033 0.339621 -0.140675
v 0.125000 0.289665 -0.119983
v 0.050000 0.360313 -0.149246
v 0.103033 0.339621 -0.140675
v -0.050000 0.275772 -0.275772
v -0.125000 0.185652 -0.185652
v -0.103033 0.259934 -0.259934
v 0.125000 0.221700 -0.221700
v 0.050000 0.275772 -0.275772
v 0.103033 0.259934 -0.259934
v -0.050000 0.149247 -0.360313
v -0.125000 0.100474 -0.242566
v -0.103033 0.140675 -0.339621
v 0.125000 0.119983 -0.289665
v 0.050000 0.149247 -0.360313
v 0.103033 0.140676 -0.339621
v -0.125000 -0.119983 -0.289665
v -0.125000 0.000000 -0.313531
v -0.125000 -0.221700 -0.221700
v -0.125000 -0.289665 -0.119983
v -0.125000 -0.313531 -0.000000
v -0.125000 -0.289665 0.119983
v -0.125000 -0.221700 0.221700
v -0.125000 -0.119983 0.289665
v -0.125000 -0.000000 0.313531
v -0.125000 0.119983 0.289665
v -0.125000 0.221700 0.221700
v -0.125000 0.289665 0.119983
v -0.125000 0.313531 0.000000
v -0.125000 0.289665 -0.119983
v -0.125000 0.221700 -0.221700
v -0.125000 0.119983 -0.289664
v -0.100000 -0.084867 -0.204886
v -0.100000 0.000000 -0.221767
v -0.100000 -0.156813 -0.156813
v -0.100000 -0.204886 -0.084867
v -0.100000 -0.221767 -0.000000
v -0.100000 -0.204886 0.084867
v -0.100000 -0.156813 0.156813
v -0.100000 -0.084867 0.204886
v -0.100000 -0.000000 0.221767
v -0.100000 0.084867 0.204886
v -0.100000 0.156813 0.156813
v -0.100000 0.204886 0.084867
v -0.100000 0.221767 0.000000
v -0.100000 0.204886 -0.084867
v -0.100000 0.156813 -0.156813
v -0.100000 0.084867 -0.204886
v -0.100000 -0.067309 -0.162497
v -0.100000 0.000000 -0.175886
v -0.100000 -0.124370 -0.124370
v -0.100000 -0.162497 -0.067309
v -0.100000 -0.175886 -0.000000
v -0.100000 -0.162497 0.067309
v -0.100000 -0.124370 0.124370
v -0.100000 -0.067309 0.162497
v -0.100000 -0.000000 0.175886
v -0.100000 0.067309 0.162497
v -0.100000 0.124370 0.124370
v -0.100000 0.162497 0.067309
v -0.100000 0.175886 0.000000
v -0.100000 0.162497 -0.067309
v -0.100000 0.124370 -0.124370
v -0.100000 0.067309 -0.162497
v -0.110000 -0.057554 -0.138948
v -0.110000 0.000000 -0.150396
v -0.110000 -0.106346 -0.106346
v -0.110000 -0.138948 -0.057554
v -0.110000 -0.150396 -0.000000
v -0.110000 -0.138948 0.057554
v -0.110000 -0.106346 0.106346
v -0.110000 -0.057554 0.138948
v -0.110000 -0.000000 0.150396
v -0.110000 0.057554 0.138948
v -0.110000 0.106346 0.106346
v -0.110000 0.138948 0.057554
v -0.110000 0.150396 0.000000
v -0.110000 0.138948 -0.057554
v -0.110000 0.106346 -0.106346
v -0.110000 0.057554 -0.138948
vn -0.0000 -0.1951 -0.9808
vn -1.0000 -0.0000 -0.0000
vn -0.0000 0.1951 -0.9808
vn -0.0000 -0.5556 -0.8315
vn 1.0000 -0.0000 -0.0000
vn -0.0000 -0.8315 -0.5556
vn -0.0000 -0.9808 -0.1951
vn -0.0000 -0.9808 0.1951
vn -0.0000 -0.8315 0.5556
vn -0.0000 -0.5556 0.8315
vn -0.0000 -0.1951 0.9808
vn -0.0000 0.1951 0.9808
vn -0.0000 0.5556 0.8315
vn -0.0000 0.8315 0.5556
vn -0.0000 0.9808 0.1951
vn -0.0000 0.9808 -0.1951
vn -0.0000 0.8315 -0.5556
vn -0.0000 0.5556 -0.8315
vn -0.3827 -0.1802 -0.9061
vn -0.9239 -0.0747 -0.3753
vn 0.3827 -0.1802 -0.9061
vn 0.9239 -0.0747 -0.3753
vn -0.3827 -0.5133 -0.7682
vn -0.9239 -0.2126 -0.3182
vn 0.3827 -0.5133 -0.7682
vn 0.9239 -0.2126 -0.3182
vn -0.3827 -0.7682 -0.5133
vn -0.9239 -0.3182 -0.2126
vn 0.3827 -0.7682 -0.5133
vn 0.9239 -0.3182 -0.2126
vn -0.3827 -0.9061 -0.1802
vn -0.9239 -0.3753 -0.0747
vn 0.3827 -0.9061 -0.1802
vn 0.9239 -0.3753 -0.0747
vn -0.3827 -0.9061 0.1802
vn -0.9239 -0.3753 0.0747
vn 0.3827 -0.9061 0.1802
vn 0.9239 -0.3753 0.0747
vn -0.3827 -0.7682 0.5133
vn -0.9239 -0.3182 0.2126
vn 0.3827 -0.7682 0.5133
vn 0.9239 -0.3182 0.2126
vn -0.3827 -0.5133 0.7682
vn -0.9239 -0.2126 0.3182
vn 0.3827 -0.5133 0.7682
vn 0.9239 -0.2126 0.3182
vn -0.3827 -0.1802 0.9061
vn -0.9239 -0.0747 0.3753
vn 0.3827 -0.1802 0.9061
vn 0.9239 -0.0747 0.3753
vn -0.3827 0.1802 0.9061
vn -0.9239 0.0747 0.3753
vn 0.3827 0.1802 0.9061
vn 0.9239 0.0747 0.3753
vn -0.3827 0.5133 0.7682
vn -0.9239 0.2126 0.3182
vn 0.3827 0.5133 0.7682
vn 0.9239 0.2126 0.3182
vn -0.3827 0.7682 0.5133
vn -0.9239 0.3182 0.2126
vn 0.3827 0.7682 0.5133
vn 0.9239 0.3182 0.2126
vn -0.3827 0.9061 0.1802
vn -0.9239 0.3753 0.0747
vn 0.3827 0.9061 0.1802
vn 0.9239 0.3753 0.0747
vn -0.3827 0.9061 -0.1802
vn -0.9239 0.3753 -0.0747
vn 0.3827 0.9061 -0.1802
vn 0.9239 0.3753 -0.0747
vn -0.3827 0.7682 -0.5133
vn -0.9239 0.3182 -0.2126
vn 0.3827 0.7682 -0.5133
vn 0.9239 0.3182 -0.2126
vn -0.3827 0.5133 -0.7682
vn -0.9239 0.2126 -0.3182
vn 0.3827 0.5133 -0.7682
vn 0.9239 0.2126 -0.3182
vn -0.3827 0.1802 -0.9061
vn -0.9239 0.0747 -0.3753
vn 0.3827 0.1802 -0.9061
vn 0.9239 0.0747 -0.3753
vn -0.8480 0.1034 0.5198
vn -0.8480 0.2945 0.4407
vn -0.8480 0.4407 0.2945
vn -0.8480 0.5198 0.1034
vn -0.8480 0.5198 -0.1034
vn -0.8480 0.4407 -0.2945
vn -0.8480 0.2945 -0.4407
vn -0.8480 0.1034 -0.5198
vn -0.8480 -0.1034 -0.5198
vn -0.8480 -0.2945 -0.4407
vn -0.8480 -0.4407 -0.2945
vn -0.8480 -0.5198 -0.1034
vn -0.8480 -0.5198 0.1034
vn -0.8480 -0.4407 0.2945
vn -0.8480 -0.2945 0.4407
vn -0.8480 -0.1034 0.5198
vn -0.9285 -0.0725 -0.3643
vn -0.9285 -0.2063 -0.3088
vn -0.9285 -0.3088 -0.2063
vn -0.9285 -0.3643 -0.0725
vn -0.9285 -0.3643 0.0725
vn -0.9285 -0.3088 0.2063
vn -0.9285 -0.2063 0.3088
vn -0.9285 -0.0725 0.3643
vn -0.9285 0.0725 0.3643
vn -0.9285 0.2063 0.3088
vn -0.9285 0.3088 0.2063
vn -0.9285 0.3643 0.0725
vn -0.9285 0.3643 -0.0725
vn -0.9285 0.3088 -0.2063
vn -0.9285 0.2063 -0.3088
vn -0.9285 0.0725 -0.3643
vt 0.483924 0.848536
vt 0.483924 0.877324
vt 0.440117 0.877324
vt 0.440117 0.848536
vt 0.911935 0.815191
vt 0.926419 0.793475
vt 0.933618 0.800688
vt 0.352504 0.848536
vt 0.352504 0.877324
vt 0.308698 0.877324
vt 0.308698 0.848536
vt 0.396311 0.877324
vt 0.396311 0.848536
vt 0.937536 0.810095
vt 0.818185 0.683842
vt 0.785994 0.677438
vt 0.790895 0.665607
vt 0.352504 0.848536
vt 0.937556 0.820275
vt 0.785994 0.690245
vt 0.308698 0.877324
vt 0.308698 0.848536
vt 0.933651 0.829676
vt 0.790895 0.702076
vt 0.483924 0.848536
vt 0.483924 0.877324
vt 0.440117 0.848536
vt 0.926438 0.836875
vt 0.799950 0.711131
vt 0.396311 0.877324
vt 0.396311 0.848536
vt 0.917032 0.840793
vt 0.811781 0.716032
vt 0.352504 0.877324
vt 0.352504 0.848536
vt 0.906851 0.840813
vt 0.824588 0.716032
vt 0.308698 0.877324
vt 0.897450 0.836908
vt 0.836419 0.711131
vt 0.483924 0.848536
vt 0.483924 0.877324
vt 0.440117 0.877324
vt 0.890252 0.829695
vt 0.845474 0.702076
vt 0.396311 0.877324
vt 0.886333 0.820288
vt 0.850375 0.690245
vt 0.352504 0.877324
vt 0.886313 0.810108
vt 0.850375 0.677438
vt 0.890218 0.800707
vt 0.845474 0.665607
vt 0.483924 0.848536
vt 0.897431 0.793508
vt 0.836419 0.656552
vt 0.906838 0.789590
vt 0.824588 0.651651
vt 0.811781 0.651651
vt 0.917018 0.789570
vt 0.799950 0.656552
vt 0.441375 0.832011
vt 0.482666 0.832011
vt 0.444412 0.815486
vt 0.479629 0.815486
vt 0.482666 0.893849
vt 0.441375 0.893849
vt 0.479629 0.910374
vt 0.444412 0.910374
vt 0.397569 0.832011
vt 0.438859 0.832011
vt 0.400605 0.815486
vt 0.435822 0.815486
vt 0.438859 0.893849
vt 0.397569 0.893849
vt 0.435822 0.910374
vt 0.400605 0.910374
vt 0.353762 0.832011
vt 0.395053 0.832011
vt 0.356799 0.815486
vt 0.392016 0.815486
vt 0.395053 0.893849
vt 0.353762 0.893849
vt 0.392016 0.910374
vt 0.356799 0.910374
vt 0.309955 0.832011
vt 0.351246 0.832011
vt 0.312992 0.815486
vt 0.348209 0.815486
vt 0.351246 0.893849
vt 0.309955 0.893849
vt 0.348209 0.910374
vt 0.312992 0.910374
vt 0.441375 0.832011
vt 0.482666 0.893849
vt 0.441375 0.893849
vt 0.479629 0.910374
vt 0.397569 0.832011
vt 0.435822 0.815486
vt 0.435822 0.910374
vt 0.400605 0.910374
vt 0.353762 0.832011
vt 0.395053 0.832011
vt 0.356799 0.815486
vt 0.392016 0.815486
vt 0.395053 0.893849
vt 0.356799 0.910374
vt 0.309955 0.832011
vt 0.351246 0.832011
vt 0.312992 0.815486
vt 0.348209 0.815486
vt 0.309955 0.893849
vt 0.348209 0.910374
vt 0.312992 0.910374
vt 0.482666 0.893849
vt 0.400605 0.815486
vt 0.395053 0.832011
vt 0.356799 0.815486
vt 0.392016 0.815486
vt 0.392016 0.910374
vt 0.309955 0.832011
vt 0.348209 0.815486
vt 0.441375 0.832011
vt 0.479629 0.815486
vt 0.482666 0.893849
vt 0.441375 0.893849
vt 0.400605 0.815486
vt 0.353762 0.832011
vt 0.356799 0.815486
vt 0.392016 0.815486
vt 0.395053 0.893849
vt 0.353762 0.893849
vt 0.356799 0.910373
vt 0.309955 0.832011
vt 0.351246 0.832011
vt 0.348209 0.815486
vt 0.309955 0.893849
vt 0.348209 0.910373
vt 0.312992 0.910373
vt 0.447275 0.801092
vt 0.476766 0.801092
vt 0.403469 0.801092
vt 0.432959 0.801092
vt 0.359662 0.801092
vt 0.389153 0.801092
vt 0.315855 0.801092
vt 0.345346 0.801092
vt 0.432959 0.801092
vt 0.389153 0.801092
vt 0.315855 0.801092
vt 0.345346 0.801092
vt 0.359662 0.801092
vt 0.389153 0.801092
vt 0.345346 0.801092
vt 0.476766 0.801092
vt 0.403468 0.801092
vt 0.315855 0.801092
vt 0.345346 0.801092
vt 0.449565 0.787513
vt 0.474475 0.787513
vt 0.405759 0.787513
vt 0.430669 0.787513
vt 0.361952 0.787513
vt 0.386862 0.787513
vt 0.318146 0.787513
vt 0.343056 0.787513
vt 0.449566 0.787513
vt 0.474475 0.787513
vt 0.361953 0.787513
vt 0.386862 0.787513
vt 0.361953 0.787513
vt 0.386862 0.787513
vt 0.318146 0.787513
vt 0.343056 0.787513
vt 0.361952 0.787513
vt 0.386862 0.787513
vt 0.929073 0.789487
vt 0.917945 0.784898
vt 0.919512 0.776998
vt 0.933547 0.782795
vt 0.937623 0.798009
vt 0.944308 0.793537
vt 0.942235 0.809165
vt 0.950128 0.807584
vt 0.942228 0.821202
vt 0.950128 0.822769
vt 0.937639 0.832329
vt 0.944331 0.836804
vt 0.929118 0.840880
vt 0.933589 0.847565
vt 0.917961 0.845492
vt 0.919542 0.853385
vt 0.905925 0.845484
vt 0.904357 0.853385
vt 0.894797 0.840896
vt 0.890323 0.847588
vt 0.886246 0.832374
vt 0.879561 0.836846
vt 0.881635 0.821218
vt 0.873741 0.822799
vt 0.881642 0.809181
vt 0.873741 0.807614
vt 0.886231 0.798054
vt 0.879539 0.793579
vt 0.894752 0.789503
vt 0.890280 0.782818
vt 0.905908 0.784892
vt 0.904327 0.776998
s 0
usemtl YandexRover
f 4/1/1 6/2/1 13/3/1 9/4/1
f 1/5/2 147/6/2 149/7/2
f 93/8/3 97/9/3 6/10/3 4/11/3
f 9/4/4 13/3/4 19/12/4 15/13/4
f 1/5/2 149/7/2 150/14/2
f 2/15/5 18/16/5 12/17/5
f 15/13/6 19/12/6 25/9/6 21/18/6
f 1/5/2 150/14/2 151/19/2
f 2/15/5 24/20/5 18/16/5
f 21/18/7 25/9/7 31/21/7 27/22/7
f 1/5/2 151/19/2 152/23/2
f 2/15/5 30/24/5 24/20/5
f 27/25/8 31/26/8 37/3/8 33/27/8
f 1/5/2 152/23/2 153/28/2
f 2/15/5 36/29/5 30/24/5
f 33/27/9 37/3/9 43/30/9 39/31/9
f 1/5/2 153/28/2 154/32/2
f 2/15/5 42/33/5 36/29/5
f 39/31/10 43/30/10 49/34/10 45/35/10
f 1/5/2 154/32/2 155/36/2
f 2/15/5 48/37/5 42/33/5
f 45/35/11 49/34/11 55/38/11 51/22/11
f 1/5/2 155/36/2 156/39/2
f 2/15/5 54/40/5 48/37/5
f 51/41/12 55/42/12 61/43/12 57/4/12
f 1/5/2 156/39/2 157/44/2
f 2/15/5 60/45/5 54/40/5
f 57/4/13 61/43/13 67/46/13 63/31/13
f 1/5/2 157/44/2 158/47/2
f 2/15/5 66/48/5 60/45/5
f 63/31/14 67/46/14 73/49/14 69/35/14
f 1/5/2 158/47/2 159/50/2
f 2/15/5 72/51/5 66/48/5
f 69/35/15 73/49/15 79/21/15 75/22/15
f 1/5/2 159/50/2 160/52/2
f 2/15/5 78/53/5 72/51/5
f 75/54/16 79/2/16 85/43/16 81/27/16
f 1/5/2 160/52/2 161/55/2
f 2/15/5 84/56/5 78/53/5
f 81/27/17 85/43/17 91/12/17 87/13/17
f 1/5/2 161/55/2 162/57/2
f 2/15/5 90/58/5 84/56/5
f 87/13/18 91/12/18 97/9/18 93/8/18
f 2/15/5 96/59/5 90/58/5
f 1/5/2 148/60/2 147/6/2
f 2/15/5 12/17/5 7/61/5
f 2/15/5 7/61/5 96/59/5
f 4/1/19 9/4/19 11/62/19 5/63/19
f 5/63/20 11/62/20 99/64/20 100/65/20
f 13/3/21 6/2/21 8/66/21 14/67/21
f 14/67/22 8/66/22 7/68/22 12/69/22
f 9/4/23 15/13/23 17/70/23 11/71/23
f 11/71/24 17/70/24 101/72/24 99/73/24
f 19/12/25 13/3/25 14/74/25 20/75/25
f 20/75/26 14/74/26 12/76/26 18/77/26
f 15/13/27 21/18/27 23/78/27 17/79/27
f 17/79/28 23/78/28 102/80/28 101/81/28
f 25/9/29 19/12/29 20/82/29 26/83/29
f 26/83/30 20/82/30 18/84/30 24/85/30
f 21/18/31 27/22/31 29/86/31 23/87/31
f 23/87/32 29/86/32 103/88/32 102/89/32
f 31/21/33 25/9/33 26/90/33 32/91/33
f 32/91/34 26/90/34 24/92/34 30/93/34
f 27/25/35 33/27/35 35/94/35 29/63/35
f 29/63/36 35/94/36 104/64/36 103/65/36
f 37/3/37 31/26/37 32/95/37 38/96/37
f 38/96/38 32/95/38 30/97/38 36/69/38
f 33/27/39 39/31/39 41/98/39 35/71/39
f 35/71/40 41/98/40 105/72/40 104/99/40
f 43/30/41 37/3/41 38/74/41 44/75/41
f 44/75/42 38/74/42 36/100/42 42/101/42
f 39/31/43 45/35/43 47/102/43 41/103/43
f 41/103/44 47/102/44 106/104/44 105/105/44
f 49/34/45 43/30/45 44/106/45 50/83/45
f 50/83/46 44/106/46 42/84/46 48/107/46
f 45/35/47 51/22/47 53/108/47 47/109/47
f 47/109/48 53/108/48 107/110/48 106/111/48
f 55/38/49 49/34/49 50/90/49 56/112/49
f 56/112/50 50/90/50 48/113/50 54/114/50
f 51/41/51 57/4/51 59/94/51 53/63/51
f 53/63/52 59/94/52 108/64/52 107/65/52
f 61/43/53 55/42/53 56/115/53 62/96/53
f 62/96/54 56/115/54 54/97/54 60/69/54
f 57/4/55 63/31/55 65/70/55 59/71/55
f 59/71/56 65/70/56 109/116/56 108/99/56
f 67/46/57 61/43/57 62/74/57 68/75/57
f 68/75/58 62/74/58 60/100/58 66/101/58
f 63/31/59 69/35/59 71/78/59 65/117/59
f 65/117/60 71/78/60 110/118/60 109/119/60
f 73/49/61 67/46/61 68/106/61 74/83/61
f 74/83/62 68/106/62 66/120/62 72/107/62
f 69/35/63 75/22/63 77/121/63 71/87/63
f 71/87/64 77/121/64 111/88/64 110/122/64
f 79/21/65 73/49/65 74/90/65 80/112/65
f 80/112/66 74/90/66 72/113/66 78/93/66
f 75/54/67 81/27/67 83/123/67 77/63/67
f 77/63/68 83/123/68 112/64/68 111/124/68
f 85/43/69 79/2/69 80/125/69 86/126/69
f 86/126/70 80/125/70 78/68/70 84/69/70
f 81/27/71 87/13/71 89/70/71 83/71/71
f 83/71/72 89/70/72 113/127/72 112/73/72
f 91/12/73 85/43/73 86/74/73 92/75/73
f 92/75/74 86/74/74 84/76/74 90/77/74
f 87/13/75 93/8/75 95/128/75 89/79/75
f 89/79/76 95/128/76 114/129/76 113/130/76
f 97/9/77 91/12/77 92/131/77 98/132/77
f 98/132/78 92/131/78 90/84/78 96/133/78
f 93/8/79 4/11/79 5/134/79 95/135/79
f 95/135/80 5/134/80 100/88/80 114/136/80
f 6/10/81 97/9/81 98/90/81 8/137/81
f 8/137/82 98/90/82 96/138/82 7/139/82
f 1/5/2 162/57/2 148/60/2
f 10/140/2 3/141/2 100/65/2 99/64/2
f 16/142/2 10/143/2 99/73/2 101/72/2
f 22/144/2 16/145/2 101/81/2 102/80/2
f 28/146/2 22/147/2 102/89/2 103/88/2
f 34/140/2 28/141/2 103/65/2 104/64/2
f 40/142/2 34/148/2 104/99/2 105/72/2
f 46/144/2 40/149/2 105/105/2 106/104/2
f 52/150/2 46/151/2 106/111/2 107/110/2
f 58/140/2 52/141/2 107/65/2 108/64/2
f 64/142/2 58/148/2 108/99/2 109/116/2
f 70/152/2 64/153/2 109/119/2 110/118/2
f 76/146/2 70/154/2 110/122/2 111/88/2
f 82/140/2 76/155/2 111/124/2 112/64/2
f 88/156/2 82/143/2 112/73/2 113/127/2
f 94/152/2 88/153/2 113/130/2 114/129/2
f 3/157/2 94/158/2 114/136/2 100/88/2
f 115/159/83 116/160/83 3/141/83 10/140/83
f 117/161/84 115/162/84 10/143/84 16/142/84
f 118/163/85 117/164/85 16/145/85 22/144/85
f 119/165/86 118/166/86 22/147/86 28/146/86
f 120/167/87 119/168/87 28/141/87 34/140/87
f 121/161/88 120/162/88 34/148/88 40/142/88
f 122/169/89 121/170/89 40/149/89 46/144/89
f 123/165/90 122/166/90 46/151/90 52/150/90
f 124/167/91 123/168/91 52/141/91 58/140/91
f 125/161/92 124/162/92 58/148/92 64/142/92
f 126/171/93 125/172/93 64/153/93 70/152/93
f 127/173/94 126/174/94 70/154/94 76/146/94
f 128/159/95 127/160/95 76/155/95 82/140/95
f 129/161/96 128/162/96 82/143/96 88/156/96
f 130/175/97 129/176/97 88/153/97 94/152/97
f 116/173/98 130/174/98 94/158/98 3/157/98
f 131/177/2 132/178/2 116/179/2 115/180/2
f 133/181/2 131/177/2 115/180/2 117/182/2
f 134/183/2 133/181/2 117/182/2 118/184/2
f 135/185/2 134/183/2 118/184/2 119/186/2
f 136/187/2 135/185/2 119/186/2 120/188/2
f 137/189/2 136/187/2 120/188/2 121/190/2
f 138/191/2 137/189/2 121/190/2 122/192/2
f 139/193/2 138/191/2 122/192/2 123/194/2
f 140/195/2 139/193/2 123/194/2 124/196/2
f 141/197/2 140/195/2 124/196/2 125/198/2
f 142/199/2 141/197/2 125/198/2 126/200/2
f 143/201/2 142/199/2 126/200/2 127/202/2
f 144/203/2 143/201/2 127/202/2 128/204/2
f 145/205/2 144/203/2 128/204/2 129/206/2
f 146/207/2 145/205/2 129/206/2 130/208/2
f 132/178/2 146/207/2 130/208/2 116/179/2
f 147/6/99 148/60/99 132/178/99 131/177/99
f 149/7/100 147/6/100 131/177/100 133/181/100
f 150/14/101 149/7/101 133/181/101 134/183/101
f 151/19/102 150/14/102 134/183/102 135/185/102
f 152/23/103 151/19/103 135/185/103 136/187/103
f 153/28/104 152/23/104 136/187/104 137/189/104
f 154/32/105 153/28/105 137/189/105 138/191/105
f 155/36/106 154/32/106 138/191/106 139/193/106
f 156/39/107 155/36/107 139/193/107 140/195/107
f 157/44/108 156/39/108 140/195/108 141/197/108
f 158/47/109 157/44/109 141/197/109 142/199/109
f 159/50/110 158/47/110 142/199/110 143/201/110
f 160/52/111 159/50/111 143/201/111 144/203/111
f 161/55/112 160/52/112 144/203/112 145/205/112
f 162/57/113 161/55/113 145/205/113 146/207/113
f 148/60/114 162/57/114 146/207/114 132/178/114
